<svg width="800" height="600" xmlns="http://www.w3.org/2000/svg"><rect width="800" height="600" fill="#0a0a0a"/><path d="M 181.17 315.74 L 181.17 315.74 L 184.79 309.94 L 188.40 309.94 L 192.02 309.94 L 195.64 309.94 L 199.26 309.94 L 202.87 309.94 L 206.49 309.94 L 210.11 309.73 L 213.72 309.73 L 217.34 310.97 L 264.36 281.26 L 267.98 246.47 L 271.60 246.47 L 275.21 246.47 L 278.83 246.47 L 282.45 246.47 L 286.06 246.47 L 289.68 246.47 L 293.30 246.47 L 296.91 238.91 L 300.53 244.09 L 304.15 254.55 L 307.77 254.55 L 311.38 254.55 L 315.00 251.54 L 318.62 227.83 L 322.23 225.76 L 325.85 217.69 L 329.47 217.07 L 333.09 217.07 L 336.70 217.07 L 340.32 216.03 L 343.94 216.03 L 347.55 205.26 L 351.17 199.47 L 354.79 199.47 L 358.40 191.91 L 362.02 191.91 L 365.64 190.04 L 369.26 191.60 L 372.87 195.12 L 376.49 195.12 L 380.11 195.12 L 383.72 198.64 L 387.34 195.53 L 390.96 196.05 L 394.57 198.12 L 398.19 213.75 L 401.81 227.32 L 405.43 227.32 L 409.04 229.18 L 409.04 233.11 L 405.43 239.12 L 401.81 239.12 L 398.19 239.12 L 394.57 239.12 L 390.96 239.12 L 387.34 239.12 L 383.72 239.12 L 380.11 239.12 L 376.49 239.12 L 372.87 239.12 L 369.26 239.12 L 365.64 239.12 L 362.02 240.98 L 358.40 240.98 L 354.79 240.98 L 351.17 240.98 L 347.55 240.98 L 343.94 248.65 L 340.32 248.65 L 336.70 248.65 L 333.09 248.65 L 329.47 259.62 L 325.85 259.62 L 322.23 259.62 L 318.62 259.62 L 315.00 267.70 L 311.38 267.70 L 307.77 267.70 L 304.15 267.70 L 300.53 267.70 L 296.91 267.70 L 293.30 267.70 L 289.68 267.70 L 286.06 267.70 L 282.45 267.70 L 278.83 267.70 L 275.21 267.70 L 271.60 267.70 L 267.98 267.70 L 264.36 301.86 L 217.34 316.36 L 213.72 316.36 L 210.11 316.36 L 206.49 316.36 L 202.87 316.36 L 199.26 316.36 L 195.64 316.36 L 192.02 316.36 L 188.40 316.36 L 184.79 316.36 L 181.17 316.36 Z" fill="#22c55e" opacity="0.2" stroke="none"/><path d="M 152.23 313.46 L 152.23 313.46 L 155.85 313.46 L 159.47 319.78 L 163.09 314.70 L 166.70 314.70 L 170.32 327.02 L 173.94 330.23 L 177.55 324.12 L 220.96 323.61 L 224.57 324.75 L 228.19 324.75 L 231.81 324.75 L 235.43 324.75 L 239.04 315.12 L 242.66 313.25 L 246.28 311.18 L 249.89 311.18 L 253.51 308.18 L 257.13 308.18 L 260.74 306.52 L 412.66 233.43 L 416.28 231.35 L 419.89 231.35 L 423.51 231.35 L 427.13 231.35 L 430.74 231.35 L 434.36 320.19 L 437.98 320.19 L 441.60 320.19 L 445.21 320.19 L 448.83 320.60 L 452.45 323.30 L 456.06 323.30 L 459.68 337.69 L 463.30 349.18 L 466.91 368.13 L 470.53 369.99 L 474.15 371.75 L 477.77 374.65 L 481.38 374.13 L 485.00 379.41 L 488.62 380.76 L 492.23 380.76 L 495.85 380.76 L 499.47 380.76 L 503.09 382.83 L 506.70 382.83 L 510.32 383.35 L 513.94 386.04 L 517.55 386.04 L 521.17 387.28 L 524.79 390.08 L 528.40 418.24 L 532.02 423.52 L 535.64 426.11 L 539.26 431.70 L 542.87 432.32 L 546.49 433.05 L 550.11 435.84 L 553.72 437.70 L 557.34 437.70 L 560.96 437.70 L 564.57 439.78 L 568.19 439.78 L 571.81 439.78 L 575.43 461.93 L 579.04 466.28 L 582.66 466.28 L 586.28 466.28 L 589.89 467.73 L 593.51 470.53 L 597.13 472.29 L 600.74 473.32 L 604.36 476.22 L 607.98 477.77 L 611.60 477.67 L 615.21 477.26 L 618.83 477.67 L 622.45 486.89 L 626.06 488.33 L 629.68 489.47 L 633.30 490.92 L 636.91 494.34 L 640.53 495.48 L 644.15 501.69 L 644.15 464.42 L 640.53 455.51 L 636.91 455.51 L 633.30 454.06 L 629.68 448.27 L 626.06 446.61 L 622.45 445.78 L 618.83 383.66 L 615.21 380.35 L 611.60 380.35 L 607.98 380.35 L 604.36 374.96 L 600.74 374.13 L 597.13 374.13 L 593.51 374.13 L 589.89 374.13 L 586.28 374.13 L 582.66 374.13 L 579.04 374.13 L 575.43 370.41 L 571.81 349.70 L 568.19 349.70 L 564.57 345.35 L 560.96 341.62 L 557.34 341.62 L 553.72 321.95 L 550.11 293.17 L 546.49 292.34 L 542.87 292.34 L 539.26 292.34 L 535.64 291.92 L 532.02 291.92 L 528.40 291.92 L 524.79 291.92 L 521.17 291.92 L 517.55 291.92 L 513.94 291.92 L 510.32 291.92 L 506.70 291.92 L 503.09 291.92 L 499.47 291.92 L 495.85 291.92 L 492.23 291.92 L 488.62 291.92 L 485.00 291.92 L 481.38 291.92 L 477.77 291.92 L 474.15 291.92 L 470.53 291.92 L 466.91 291.92 L 463.30 291.92 L 459.68 291.92 L 456.06 291.92 L 452.45 291.92 L 448.83 291.92 L 445.21 291.92 L 441.60 291.92 L 437.98 291.92 L 434.36 291.92 L 430.74 218.62 L 427.13 218.62 L 423.51 218.62 L 419.89 219.86 L 416.28 229.80 L 412.66 233.11 L 260.74 298.96 L 257.13 298.96 L 253.51 298.96 L 249.89 286.33 L 246.28 286.33 L 242.66 286.33 L 239.04 286.33 L 235.43 294.62 L 231.81 294.62 L 228.19 316.36 L 224.57 316.36 L 220.96 316.36 L 177.55 305.59 L 173.94 291.10 L 170.32 280.95 L 166.70 280.95 L 163.09 280.95 L 159.47 280.95 L 155.85 251.13 L 152.23 248.85 Z" fill="#ef4444" opacity="0.2" stroke="none"/><path d="M 152.23 248.85 L 155.85 251.13 L 159.47 280.95 L 163.09 280.95 L 166.70 280.95 L 170.32 280.95 L 173.94 291.10 L 177.55 305.59 L 181.17 316.36 L 184.79 316.36 L 188.40 316.36 L 192.02 316.36 L 195.64 316.36 L 199.26 316.36 L 202.87 316.36 L 206.49 316.36 L 210.11 316.36 L 213.72 316.36 L 217.34 316.36 L 220.96 316.36 L 224.57 316.36 L 228.19 316.36 L 231.81 294.62 L 235.43 294.62 L 239.04 286.33 L 242.66 286.33 L 246.28 286.33 L 249.89 286.33 L 253.51 298.96 L 257.13 298.96 L 260.74 298.96 L 264.36 323.61 L 267.98 330.03 L 271.60 330.03 L 275.21 325.68 L 278.83 319.88 L 282.45 319.88 L 286.06 319.88 L 289.68 319.88 L 293.30 319.88 L 296.91 319.88 L 300.53 319.88 L 304.15 319.88 L 307.77 319.88 L 311.38 319.88 L 315.00 319.88 L 318.62 319.88 L 322.23 319.88 L 325.85 319.88 L 329.47 319.88 L 333.09 308.90 L 336.70 308.90 L 340.32 308.90 L 343.94 308.90 L 347.55 308.90 L 351.17 308.90 L 354.79 308.90 L 358.40 290.89 L 362.02 256.72 L 365.64 256.72 L 369.26 256.72 L 372.87 256.72 L 376.49 256.72 L 380.11 256.72 L 383.72 256.72 L 387.34 256.72 L 390.96 256.72 L 394.57 256.72 L 398.19 256.72 L 401.81 256.72 L 405.43 256.72 L 409.04 250.72 L 412.66 242.64 L 416.28 239.33 L 419.89 229.39 L 423.51 228.14 L 427.13 228.14 L 430.74 228.14 L 434.36 228.14 L 437.98 228.14 L 441.60 220.48 L 445.21 220.48 L 448.83 220.48 L 452.45 205.37 L 456.06 205.37 L 459.68 203.50 L 463.30 203.50 L 466.91 203.50 L 470.53 203.50 L 474.15 203.50 L 477.77 202.67 L 481.38 196.46 L 485.00 196.46 L 488.62 198.12 L 492.23 199.36 L 495.85 203.09 L 499.47 203.09 L 503.09 203.09 L 506.70 203.09 L 510.32 203.09 L 513.94 203.09 L 517.55 203.09 L 521.17 203.09 L 524.79 203.09 L 528.40 291.92 L 532.02 291.92 L 535.64 291.92 L 539.26 291.92 L 542.87 291.92 L 546.49 291.92 L 550.11 291.92 L 553.72 320.71 L 557.34 340.38 L 560.96 340.38 L 564.57 344.11 L 568.19 348.46 L 571.81 348.46 L 575.43 348.46 L 579.04 348.46 L 582.66 348.46 L 586.28 348.46 L 589.89 348.46 L 593.51 348.46 L 597.13 348.46 L 600.74 348.46 L 604.36 349.28 L 607.98 354.67 L 611.60 354.67 L 615.21 354.67 L 618.83 357.98 L 622.45 410.37 L 626.06 413.27 L 629.68 414.93 L 633.30 422.80 L 636.91 422.80 L 640.53 422.80 L 644.15 426.32 L 647.77 426.32 L 651.38 426.32 L 655.00 426.32 L 658.62 430.46 L 662.23 430.46 L 665.85 430.46 L 669.47 451.16 L 673.09 454.89 L 676.70 454.89 L 680.32 454.89 L 683.94 456.34 L 687.55 461.10 L 691.17 464.62 L 694.79 465.87 L 698.40 467.11 L 702.02 468.56 L 705.64 469.80 L 709.26 473.53 L 712.87 473.53 L 716.49 478.71 L 720.11 479.53 L 723.72 479.53 L 727.34 479.53 L 730.96 483.88 L 734.57 485.13 L 738.19 491.34" fill="none" stroke="#9333ea" stroke-width="2" opacity="0.8"/><path d="M 90.74 212.41 L 94.36 214.69 L 97.98 244.50 L 101.60 244.50 L 105.21 244.50 L 108.83 244.50 L 112.45 254.65 L 116.06 269.15 L 119.68 292.55 L 123.30 312.84 L 126.91 323.61 L 130.53 323.61 L 134.15 323.61 L 137.77 353.43 L 141.38 353.43 L 145.00 353.43 L 148.62 349.28 L 152.23 318.43 L 155.85 318.43 L 159.47 316.36 L 163.09 316.36 L 166.70 316.36 L 170.32 294.62 L 173.94 294.62 L 177.55 284.88 L 181.17 284.88 L 184.79 284.88 L 188.40 284.88 L 192.02 297.52 L 195.64 297.52 L 199.26 297.52 L 202.87 322.16 L 206.49 323.40 L 210.11 323.40 L 213.72 316.98 L 217.34 321.33 L 220.96 321.33 L 224.57 321.33 L 228.19 321.33 L 231.81 329.61 L 235.43 338.93 L 239.04 340.59 L 242.66 340.59 L 246.28 340.59 L 249.89 340.59 L 253.51 340.59 L 257.13 330.44 L 260.74 330.44 L 264.36 330.44 L 267.98 330.44 L 271.60 318.22 L 275.21 305.80 L 278.83 300.00 L 282.45 300.00 L 286.06 300.00 L 289.68 300.00 L 293.30 300.00 L 296.91 300.00 L 300.53 300.00 L 304.15 299.59 L 307.77 299.59 L 311.38 302.07 L 315.00 327.33 L 318.62 329.61 L 322.23 329.61 L 325.85 329.61 L 329.47 329.61 L 333.09 321.33 L 336.70 317.60 L 340.32 313.46 L 343.94 313.46 L 347.55 307.45 L 351.17 307.45 L 354.79 304.14 L 358.40 271.63 L 362.02 236.22 L 365.64 236.22 L 369.26 236.22 L 372.87 236.22 L 376.49 236.22 L 380.11 236.22 L 383.72 236.22 L 387.34 236.22 L 390.96 221.10 L 394.57 231.46 L 398.19 252.37 L 401.81 252.37 L 405.43 252.37 L 409.04 252.37 L 412.66 213.03 L 416.28 212.20 L 419.89 205.99 L 423.51 205.99 L 427.13 205.99 L 430.74 205.99 L 434.36 203.92 L 437.98 203.92 L 441.60 190.04 L 445.21 178.45 L 448.83 178.45 L 452.45 178.45 L 456.06 178.45 L 459.68 176.58 L 463.30 179.69 L 466.91 186.73 L 470.53 186.73 L 474.15 186.73 L 477.77 194.60 L 481.38 194.60 L 485.00 195.63 L 488.62 198.12 L 492.23 228.14 L 495.85 251.54 L 499.47 251.54 L 503.09 255.27 L 506.70 263.76 L 510.32 259.62 L 513.94 259.62 L 517.55 259.62 L 521.17 259.62 L 524.79 259.62 L 528.40 348.46 L 532.02 348.46 L 535.64 348.46 L 539.26 348.46 L 542.87 349.28 L 546.49 354.67 L 550.11 354.67 L 553.72 354.67 L 557.34 357.98 L 560.96 395.88 L 564.57 395.88 L 568.19 395.05 L 571.81 400.85 L 575.43 399.81 L 579.04 410.37 L 582.66 413.06 L 586.28 413.06 L 589.89 413.06 L 593.51 413.06 L 597.13 417.20 L 600.74 417.20 L 604.36 417.41 L 607.98 417.41 L 611.60 417.41 L 615.21 419.90 L 618.83 422.17 L 622.45 426.11 L 626.06 433.77 L 629.68 437.29 L 633.30 440.60 L 636.91 441.85 L 640.53 443.30 L 644.15 445.37 L 647.77 449.09 L 651.38 449.09 L 655.00 449.09 L 658.62 449.09 L 662.23 449.09 L 665.85 449.09 L 669.47 472.70 L 673.09 477.67 L 676.70 477.67 L 680.32 477.67 L 683.94 479.12 L 687.55 479.95 L 691.17 479.95 L 694.79 480.78 L 698.40 485.33 L 702.02 486.99 L 705.64 485.54 L 709.26 480.98 L 712.87 481.81 L 716.49 495.06 L 720.11 497.14 L 723.72 499.41 L 727.34 502.31 L 730.96 504.80 L 734.57 505.83 L 738.19 512.04" fill="none" stroke="#06b6d4" stroke-width="2" opacity="0.8"/><line x1="61.81" y1="60.00" x2="61.81" y2="289.03" stroke="#ef4444" stroke-width="1"/><rect x="60.72" y="60.00" width="2.17" height="105.19" fill="#ef4444" opacity="0.9"/><line x1="65.43" y1="64.56" x2="65.43" y2="257.55" stroke="#ef4444" stroke-width="1"/><rect x="64.34" y="175.55" width="2.17" height="57.98" fill="#ef4444" opacity="0.9"/><line x1="69.04" y1="195.01" x2="69.04" y2="295.24" stroke="#ef4444" stroke-width="1"/><rect x="67.96" y="237.67" width="2.17" height="15.74" fill="#ef4444" opacity="0.9"/><line x1="72.66" y1="208.68" x2="72.66" y2="275.36" stroke="#22c55e" stroke-width="1"/><rect x="71.57" y="228.14" width="2.17" height="25.26" fill="#22c55e" opacity="0.9"/><line x1="76.28" y1="201.23" x2="76.28" y2="263.76" stroke="#22c55e" stroke-width="1"/><rect x="75.19" y="220.28" width="2.17" height="5.80" fill="#22c55e" opacity="0.9"/><line x1="79.89" y1="124.19" x2="79.89" y2="227.32" stroke="#22c55e" stroke-width="1"/><rect x="78.81" y="154.01" width="2.17" height="62.54" fill="#22c55e" opacity="0.9"/><line x1="83.51" y1="144.49" x2="83.51" y2="208.68" stroke="#ef4444" stroke-width="1"/><rect x="82.43" y="158.15" width="2.17" height="11.60" fill="#ef4444" opacity="0.9"/><line x1="87.13" y1="173.48" x2="87.13" y2="251.34" stroke="#ef4444" stroke-width="1"/><rect x="86.04" y="173.48" width="2.17" height="43.49" fill="#ef4444" opacity="0.9"/><line x1="90.74" y1="220.28" x2="90.74" y2="364.81" stroke="#ef4444" stroke-width="1"/><rect x="89.66" y="220.28" width="2.17" height="118.03" fill="#ef4444" opacity="0.9"/><line x1="94.36" y1="299.79" x2="94.36" y2="356.53" stroke="#22c55e" stroke-width="1"/><rect x="93.28" y="306.01" width="2.17" height="32.72" fill="#22c55e" opacity="0.9"/><line x1="97.98" y1="284.06" x2="97.98" y2="352.39" stroke="#ef4444" stroke-width="1"/><rect x="96.89" y="306.42" width="2.17" height="41.83" fill="#ef4444" opacity="0.9"/><line x1="101.60" y1="300.21" x2="101.60" y2="355.70" stroke="#22c55e" stroke-width="1"/><rect x="100.51" y="311.39" width="2.17" height="37.27" fill="#22c55e" opacity="0.9"/><line x1="105.21" y1="293.17" x2="105.21" y2="320.50" stroke="#22c55e" stroke-width="1"/><rect x="104.13" y="308.49" width="2.17" height="2.07" fill="#22c55e" opacity="0.9"/><line x1="108.83" y1="300.62" x2="108.83" y2="341.21" stroke="#22c55e" stroke-width="1"/><rect x="107.74" y="306.01" width="2.17" height="6.21" fill="#22c55e" opacity="0.9"/><line x1="112.45" y1="274.53" x2="112.45" y2="314.70" stroke="#22c55e" stroke-width="1"/><rect x="111.36" y="302.28" width="2.17" height="5.38" fill="#22c55e" opacity="0.9"/><line x1="116.06" y1="269.15" x2="116.06" y2="306.42" stroke="#22c55e" stroke-width="1"/><rect x="114.98" y="285.71" width="2.17" height="16.57" fill="#22c55e" opacity="0.9"/><line x1="119.68" y1="277.43" x2="119.68" y2="303.11" stroke="#ef4444" stroke-width="1"/><rect x="118.60" y="287.37" width="2.17" height="7.04" fill="#ef4444" opacity="0.9"/><line x1="123.30" y1="284.47" x2="123.30" y2="335.00" stroke="#ef4444" stroke-width="1"/><rect x="122.21" y="294.41" width="2.17" height="38.52" fill="#ef4444" opacity="0.9"/><line x1="126.91" y1="313.87" x2="126.91" y2="378.07" stroke="#ef4444" stroke-width="1"/><rect x="125.83" y="331.27" width="2.17" height="28.58" fill="#ef4444" opacity="0.9"/><line x1="130.53" y1="340.79" x2="130.53" y2="369.78" stroke="#ef4444" stroke-width="1"/><rect x="129.45" y="356.53" width="2.17" height="7.87" fill="#ef4444" opacity="0.9"/><line x1="134.15" y1="341.21" x2="134.15" y2="366.06" stroke="#22c55e" stroke-width="1"/><rect x="133.06" y="363.16" width="2.17" height="2.07" fill="#22c55e" opacity="0.9"/><line x1="137.77" y1="314.29" x2="137.77" y2="437.70" stroke="#22c55e" stroke-width="1"/><rect x="136.68" y="354.87" width="2.17" height="8.28" fill="#22c55e" opacity="0.9"/><line x1="141.38" y1="325.47" x2="141.38" y2="388.01" stroke="#ef4444" stroke-width="1"/><rect x="140.30" y="354.87" width="2.17" height="17.81" fill="#ef4444" opacity="0.9"/><line x1="145.00" y1="352.80" x2="145.00" y2="394.22" stroke="#22c55e" stroke-width="1"/><rect x="143.91" y="354.87" width="2.17" height="17.39" fill="#22c55e" opacity="0.9"/><line x1="148.62" y1="260.86" x2="148.62" y2="359.02" stroke="#22c55e" stroke-width="1"/><rect x="147.53" y="272.04" width="2.17" height="80.76" fill="#22c55e" opacity="0.9"/><line x1="152.23" y1="199.15" x2="152.23" y2="293.58" stroke="#22c55e" stroke-width="1"/><rect x="151.15" y="240.57" width="2.17" height="30.65" fill="#22c55e" opacity="0.9"/><line x1="155.85" y1="204.54" x2="155.85" y2="257.96" stroke="#22c55e" stroke-width="1"/><rect x="154.77" y="226.07" width="2.17" height="13.67" fill="#22c55e" opacity="0.9"/><line x1="159.47" y1="195.01" x2="159.47" y2="260.86" stroke="#ef4444" stroke-width="1"/><rect x="158.38" y="228.14" width="2.17" height="19.88" fill="#ef4444" opacity="0.9"/><line x1="163.09" y1="238.50" x2="163.09" y2="289.85" stroke="#ef4444" stroke-width="1"/><rect x="162.00" y="248.44" width="2.17" height="32.30" fill="#ef4444" opacity="0.9"/><line x1="166.70" y1="240.98" x2="166.70" y2="291.92" stroke="#22c55e" stroke-width="1"/><rect x="165.62" y="242.64" width="2.17" height="38.52" fill="#22c55e" opacity="0.9"/><line x1="170.32" y1="220.28" x2="170.32" y2="297.72" stroke="#ef4444" stroke-width="1"/><rect x="169.23" y="244.30" width="2.17" height="37.69" fill="#ef4444" opacity="0.9"/><line x1="173.94" y1="269.56" x2="173.94" y2="374.75" stroke="#ef4444" stroke-width="1"/><rect x="172.85" y="275.36" width="2.17" height="43.90" fill="#ef4444" opacity="0.9"/><line x1="177.55" y1="312.22" x2="177.55" y2="362.33" stroke="#ef4444" stroke-width="1"/><rect x="176.47" y="318.84" width="2.17" height="7.87" fill="#ef4444" opacity="0.9"/><line x1="181.17" y1="306.01" x2="181.17" y2="364.40" stroke="#ef4444" stroke-width="1"/><rect x="180.09" y="330.03" width="2.17" height="16.98" fill="#ef4444" opacity="0.9"/><line x1="184.79" y1="323.40" x2="184.79" y2="349.49" stroke="#22c55e" stroke-width="1"/><rect x="183.70" y="332.10" width="2.17" height="15.32" fill="#22c55e" opacity="0.9"/><line x1="188.40" y1="312.22" x2="188.40" y2="346.59" stroke="#ef4444" stroke-width="1"/><rect x="187.32" y="331.27" width="2.17" height="11.18" fill="#ef4444" opacity="0.9"/><line x1="192.02" y1="317.19" x2="192.02" y2="351.56" stroke="#22c55e" stroke-width="1"/><rect x="190.94" y="317.19" width="2.17" height="26.51" fill="#22c55e" opacity="0.9"/><line x1="195.64" y1="301.86" x2="195.64" y2="330.44" stroke="#22c55e" stroke-width="1"/><rect x="194.55" y="301.86" width="2.17" height="16.98" fill="#22c55e" opacity="0.9"/><line x1="199.26" y1="282.40" x2="199.26" y2="314.29" stroke="#22c55e" stroke-width="1"/><rect x="198.17" y="301.86" width="2.17" height="1.66" fill="#22c55e" opacity="0.9"/><line x1="202.87" y1="298.96" x2="202.87" y2="326.30" stroke="#ef4444" stroke-width="1"/><rect x="201.79" y="302.69" width="2.17" height="18.64" fill="#ef4444" opacity="0.9"/><line x1="206.49" y1="314.70" x2="206.49" y2="335.41" stroke="#ef4444" stroke-width="1"/><rect x="205.40" y="320.50" width="2.17" height="7.87" fill="#ef4444" opacity="0.9"/><line x1="210.11" y1="321.74" x2="210.11" y2="347.83" stroke="#ef4444" stroke-width="1"/><rect x="209.02" y="329.61" width="2.17" height="5.80" fill="#ef4444" opacity="0.9"/><line x1="213.72" y1="320.50" x2="213.72" y2="343.28" stroke="#22c55e" stroke-width="1"/><rect x="212.64" y="330.03" width="2.17" height="5.38" fill="#22c55e" opacity="0.9"/><line x1="217.34" y1="322.16" x2="217.34" y2="360.26" stroke="#ef4444" stroke-width="1"/><rect x="216.26" y="331.27" width="2.17" height="19.47" fill="#ef4444" opacity="0.9"/><line x1="220.96" y1="337.48" x2="220.96" y2="360.26" stroke="#22c55e" stroke-width="1"/><rect x="219.87" y="337.89" width="2.17" height="13.67" fill="#22c55e" opacity="0.9"/><line x1="224.57" y1="331.68" x2="224.57" y2="351.15" stroke="#22c55e" stroke-width="1"/><rect x="223.49" y="333.75" width="2.17" height="5.80" fill="#22c55e" opacity="0.9"/><line x1="228.19" y1="320.91" x2="228.19" y2="349.49" stroke="#22c55e" stroke-width="1"/><rect x="227.11" y="324.64" width="2.17" height="9.11" fill="#22c55e" opacity="0.9"/><line x1="231.81" y1="303.52" x2="231.81" y2="343.28" stroke="#ef4444" stroke-width="1"/><rect x="230.72" y="325.47" width="2.17" height="4.56" fill="#ef4444" opacity="0.9"/><line x1="235.43" y1="325.47" x2="235.43" y2="374.34" stroke="#ef4444" stroke-width="1"/><rect x="234.34" y="330.85" width="2.17" height="32.72" fill="#ef4444" opacity="0.9"/><line x1="239.04" y1="341.62" x2="239.04" y2="377.65" stroke="#22c55e" stroke-width="1"/><rect x="237.96" y="352.39" width="2.17" height="12.01" fill="#22c55e" opacity="0.9"/><line x1="242.66" y1="321.33" x2="242.66" y2="353.22" stroke="#22c55e" stroke-width="1"/><rect x="241.57" y="329.61" width="2.17" height="23.19" fill="#22c55e" opacity="0.9"/><line x1="246.28" y1="310.15" x2="246.28" y2="332.51" stroke="#22c55e" stroke-width="1"/><rect x="245.19" y="315.53" width="2.17" height="13.25" fill="#22c55e" opacity="0.9"/><line x1="249.89" y1="309.73" x2="249.89" y2="327.13" stroke="#ef4444" stroke-width="1"/><rect x="248.81" y="316.36" width="2.17" height="6.21" fill="#ef4444" opacity="0.9"/><line x1="253.51" y1="306.42" x2="253.51" y2="325.06" stroke="#22c55e" stroke-width="1"/><rect x="252.43" y="307.66" width="2.17" height="13.67" fill="#22c55e" opacity="0.9"/><line x1="257.13" y1="283.23" x2="257.13" y2="311.80" stroke="#22c55e" stroke-width="1"/><rect x="256.04" y="305.59" width="2.17" height="1.66" fill="#22c55e" opacity="0.9"/><line x1="260.74" y1="289.03" x2="260.74" y2="319.26" stroke="#ef4444" stroke-width="1"/><rect x="259.66" y="305.18" width="2.17" height="12.84" fill="#ef4444" opacity="0.9"/><line x1="264.36" y1="305.18" x2="264.36" y2="325.88" stroke="#22c55e" stroke-width="1"/><rect x="263.28" y="305.18" width="2.17" height="12.84" fill="#22c55e" opacity="0.9"/><line x1="267.98" y1="300.62" x2="267.98" y2="324.23" stroke="#ef4444" stroke-width="1"/><rect x="266.89" y="308.08" width="2.17" height="14.50" fill="#ef4444" opacity="0.9"/><line x1="271.60" y1="285.30" x2="271.60" y2="337.89" stroke="#22c55e" stroke-width="1"/><rect x="270.51" y="291.92" width="2.17" height="29.40" fill="#22c55e" opacity="0.9"/><line x1="275.21" y1="273.70" x2="275.21" y2="300.21" stroke="#22c55e" stroke-width="1"/><rect x="274.13" y="280.33" width="2.17" height="9.11" fill="#22c55e" opacity="0.9"/><line x1="278.83" y1="262.11" x2="278.83" y2="294.82" stroke="#22c55e" stroke-width="1"/><rect x="277.74" y="270.80" width="2.17" height="7.45" fill="#22c55e" opacity="0.9"/><line x1="282.45" y1="267.08" x2="282.45" y2="318.43" stroke="#ef4444" stroke-width="1"/><rect x="281.36" y="269.56" width="2.17" height="43.90" fill="#ef4444" opacity="0.9"/><line x1="286.06" y1="298.96" x2="286.06" y2="322.16" stroke="#ef4444" stroke-width="1"/><rect x="284.98" y="314.70" width="2.17" height="4.56" fill="#ef4444" opacity="0.9"/><line x1="289.68" y1="315.94" x2="289.68" y2="331.68" stroke="#ef4444" stroke-width="1"/><rect x="288.60" y="317.19" width="2.17" height="4.14" fill="#ef4444" opacity="0.9"/><line x1="293.30" y1="320.09" x2="293.30" y2="337.07" stroke="#ef4444" stroke-width="1"/><rect x="292.21" y="324.23" width="2.17" height="4.14" fill="#ef4444" opacity="0.9"/><line x1="296.91" y1="310.56" x2="296.91" y2="331.27" stroke="#22c55e" stroke-width="1"/><rect x="295.83" y="326.71" width="2.17" height="1.24" fill="#22c55e" opacity="0.9"/><line x1="300.53" y1="316.77" x2="300.53" y2="331.68" stroke="#22c55e" stroke-width="1"/><rect x="299.45" y="319.26" width="2.17" height="9.11" fill="#22c55e" opacity="0.9"/><line x1="304.15" y1="314.29" x2="304.15" y2="335.00" stroke="#ef4444" stroke-width="1"/><rect x="303.06" y="318.43" width="2.17" height="12.42" fill="#ef4444" opacity="0.9"/><line x1="307.77" y1="320.09" x2="307.77" y2="334.17" stroke="#22c55e" stroke-width="1"/><rect x="306.68" y="331.27" width="2.17" height="1.66" fill="#22c55e" opacity="0.9"/><line x1="311.38" y1="303.52" x2="311.38" y2="330.44" stroke="#22c55e" stroke-width="1"/><rect x="310.30" y="322.99" width="2.17" height="6.21" fill="#22c55e" opacity="0.9"/><line x1="315.00" y1="323.40" x2="315.00" y2="355.70" stroke="#ef4444" stroke-width="1"/><rect x="313.91" y="323.40" width="2.17" height="7.45" fill="#ef4444" opacity="0.9"/><line x1="318.62" y1="330.44" x2="318.62" y2="340.79" stroke="#22c55e" stroke-width="1"/><rect x="317.53" y="333.75" width="2.17" height="1.00" fill="#22c55e" opacity="0.9"/><line x1="322.23" y1="332.10" x2="322.23" y2="343.69" stroke="#ef4444" stroke-width="1"/><rect x="321.15" y="334.17" width="2.17" height="2.07" fill="#ef4444" opacity="0.9"/><line x1="325.85" y1="310.97" x2="325.85" y2="337.07" stroke="#22c55e" stroke-width="1"/><rect x="324.77" y="316.36" width="2.17" height="20.29" fill="#22c55e" opacity="0.9"/><line x1="329.47" y1="307.25" x2="329.47" y2="317.19" stroke="#22c55e" stroke-width="1"/><rect x="328.38" y="307.25" width="2.17" height="7.04" fill="#22c55e" opacity="0.9"/><line x1="333.09" y1="286.95" x2="333.09" y2="310.97" stroke="#22c55e" stroke-width="1"/><rect x="332.00" y="294.82" width="2.17" height="11.18" fill="#22c55e" opacity="0.9"/><line x1="336.70" y1="279.50" x2="336.70" y2="291.92" stroke="#22c55e" stroke-width="1"/><rect x="335.62" y="286.13" width="2.17" height="4.97" fill="#22c55e" opacity="0.9"/><line x1="340.32" y1="271.22" x2="340.32" y2="293.17" stroke="#22c55e" stroke-width="1"/><rect x="339.23" y="277.84" width="2.17" height="8.70" fill="#22c55e" opacity="0.9"/><line x1="343.94" y1="272.46" x2="343.94" y2="293.99" stroke="#ef4444" stroke-width="1"/><rect x="342.85" y="275.77" width="2.17" height="12.01" fill="#ef4444" opacity="0.9"/><line x1="347.55" y1="282.81" x2="347.55" y2="302.28" stroke="#ef4444" stroke-width="1"/><rect x="346.47" y="285.71" width="2.17" height="16.15" fill="#ef4444" opacity="0.9"/><line x1="351.17" y1="289.44" x2="351.17" y2="302.28" stroke="#22c55e" stroke-width="1"/><rect x="350.09" y="291.51" width="2.17" height="8.28" fill="#22c55e" opacity="0.9"/><line x1="354.79" y1="281.98" x2="354.79" y2="313.05" stroke="#ef4444" stroke-width="1"/><rect x="353.70" y="289.44" width="2.17" height="22.36" fill="#ef4444" opacity="0.9"/><line x1="358.40" y1="226.07" x2="358.40" y2="314.70" stroke="#22c55e" stroke-width="1"/><rect x="357.32" y="240.98" width="2.17" height="69.16" fill="#22c55e" opacity="0.9"/><line x1="362.02" y1="157.74" x2="362.02" y2="251.34" stroke="#22c55e" stroke-width="1"/><rect x="360.94" y="180.10" width="2.17" height="62.95" fill="#22c55e" opacity="0.9"/><line x1="365.64" y1="178.45" x2="365.64" y2="267.49" stroke="#ef4444" stroke-width="1"/><rect x="364.55" y="179.69" width="2.17" height="69.16" fill="#ef4444" opacity="0.9"/><line x1="369.26" y1="233.53" x2="369.26" y2="266.66" stroke="#ef4444" stroke-width="1"/><rect x="368.17" y="247.61" width="2.17" height="7.45" fill="#ef4444" opacity="0.9"/><line x1="372.87" y1="244.71" x2="372.87" y2="260.45" stroke="#22c55e" stroke-width="1"/><rect x="371.79" y="250.92" width="2.17" height="4.97" fill="#22c55e" opacity="0.9"/><line x1="376.49" y1="250.09" x2="376.49" y2="277.43" stroke="#ef4444" stroke-width="1"/><rect x="375.40" y="251.34" width="2.17" height="21.95" fill="#ef4444" opacity="0.9"/><line x1="380.11" y1="262.52" x2="380.11" y2="281.16" stroke="#22c55e" stroke-width="1"/><rect x="379.02" y="264.18" width="2.17" height="9.53" fill="#22c55e" opacity="0.9"/><line x1="383.72" y1="258.79" x2="383.72" y2="284.47" stroke="#ef4444" stroke-width="1"/><rect x="382.64" y="262.93" width="2.17" height="13.67" fill="#ef4444" opacity="0.9"/><line x1="387.34" y1="260.45" x2="387.34" y2="282.81" stroke="#22c55e" stroke-width="1"/><rect x="386.26" y="263.76" width="2.17" height="13.25" fill="#22c55e" opacity="0.9"/><line x1="390.96" y1="231.46" x2="390.96" y2="265.83" stroke="#22c55e" stroke-width="1"/><rect x="389.87" y="233.11" width="2.17" height="31.89" fill="#22c55e" opacity="0.9"/><line x1="394.57" y1="220.28" x2="394.57" y2="239.74" stroke="#22c55e" stroke-width="1"/><rect x="393.49" y="227.73" width="2.17" height="7.04" fill="#22c55e" opacity="0.9"/><line x1="398.19" y1="226.07" x2="398.19" y2="261.69" stroke="#ef4444" stroke-width="1"/><rect x="397.11" y="226.07" width="2.17" height="29.82" fill="#ef4444" opacity="0.9"/><line x1="401.81" y1="245.13" x2="401.81" y2="270.39" stroke="#ef4444" stroke-width="1"/><rect x="400.72" y="253.82" width="2.17" height="13.67" fill="#ef4444" opacity="0.9"/><line x1="405.43" y1="255.06" x2="405.43" y2="265.83" stroke="#22c55e" stroke-width="1"/><rect x="404.34" y="257.14" width="2.17" height="8.28" fill="#22c55e" opacity="0.9"/><line x1="409.04" y1="247.20" x2="409.04" y2="266.25" stroke="#22c55e" stroke-width="1"/><rect x="407.96" y="250.09" width="2.17" height="5.80" fill="#22c55e" opacity="0.9"/><line x1="412.66" y1="141.59" x2="412.66" y2="253.82" stroke="#22c55e" stroke-width="1"/><rect x="411.57" y="200.40" width="2.17" height="50.94" fill="#22c55e" opacity="0.9"/><line x1="416.28" y1="156.91" x2="416.28" y2="209.09" stroke="#ef4444" stroke-width="1"/><rect x="415.19" y="201.64" width="2.17" height="4.56" fill="#ef4444" opacity="0.9"/><line x1="419.89" y1="185.49" x2="419.89" y2="206.61" stroke="#22c55e" stroke-width="1"/><rect x="418.81" y="195.84" width="2.17" height="6.63" fill="#22c55e" opacity="0.9"/><line x1="423.51" y1="159.40" x2="423.51" y2="196.26" stroke="#22c55e" stroke-width="1"/><rect x="422.43" y="169.75" width="2.17" height="26.09" fill="#22c55e" opacity="0.9"/><line x1="427.13" y1="161.47" x2="427.13" y2="202.47" stroke="#ef4444" stroke-width="1"/><rect x="426.04" y="168.92" width="2.17" height="27.33" fill="#ef4444" opacity="0.9"/><line x1="430.74" y1="197.08" x2="430.74" y2="216.96" stroke="#ef4444" stroke-width="1"/><rect x="429.66" y="199.98" width="2.17" height="11.60" fill="#ef4444" opacity="0.9"/><line x1="434.36" y1="196.26" x2="434.36" y2="225.25" stroke="#ef4444" stroke-width="1"/><rect x="433.28" y="209.51" width="2.17" height="9.53" fill="#ef4444" opacity="0.9"/><line x1="437.98" y1="204.54" x2="437.98" y2="230.63" stroke="#22c55e" stroke-width="1"/><rect x="436.89" y="216.96" width="2.17" height="2.07" fill="#22c55e" opacity="0.9"/><line x1="441.60" y1="126.26" x2="441.60" y2="216.96" stroke="#22c55e" stroke-width="1"/><rect x="440.51" y="151.94" width="2.17" height="65.02" fill="#22c55e" opacity="0.9"/><line x1="445.21" y1="139.52" x2="445.21" y2="192.11" stroke="#ef4444" stroke-width="1"/><rect x="444.13" y="151.94" width="2.17" height="25.26" fill="#ef4444" opacity="0.9"/><line x1="448.83" y1="168.09" x2="448.83" y2="190.87" stroke="#ef4444" stroke-width="1"/><rect x="447.74" y="176.38" width="2.17" height="8.70" fill="#ef4444" opacity="0.9"/><line x1="452.45" y1="132.48" x2="452.45" y2="190.04" stroke="#22c55e" stroke-width="1"/><rect x="451.36" y="144.07" width="2.17" height="43.49" fill="#22c55e" opacity="0.9"/><line x1="456.06" y1="131.65" x2="456.06" y2="156.08" stroke="#ef4444" stroke-width="1"/><rect x="454.98" y="144.49" width="2.17" height="1.00" fill="#ef4444" opacity="0.9"/><line x1="459.68" y1="122.54" x2="459.68" y2="178.03" stroke="#ef4444" stroke-width="1"/><rect x="458.60" y="143.66" width="2.17" height="34.37" fill="#ef4444" opacity="0.9"/><line x1="463.30" y1="180.10" x2="463.30" y2="236.84" stroke="#ef4444" stroke-width="1"/><rect x="462.21" y="180.10" width="2.17" height="45.56" fill="#ef4444" opacity="0.9"/><line x1="466.91" y1="219.45" x2="466.91" y2="250.92" stroke="#ef4444" stroke-width="1"/><rect x="465.83" y="225.25" width="2.17" height="18.22" fill="#ef4444" opacity="0.9"/><line x1="470.53" y1="219.45" x2="470.53" y2="243.05" stroke="#22c55e" stroke-width="1"/><rect x="469.45" y="225.66" width="2.17" height="17.39" fill="#22c55e" opacity="0.9"/><line x1="474.15" y1="226.90" x2="474.15" y2="245.95" stroke="#ef4444" stroke-width="1"/><rect x="473.06" y="226.90" width="2.17" height="17.39" fill="#ef4444" opacity="0.9"/><line x1="477.77" y1="243.88" x2="477.77" y2="266.66" stroke="#ef4444" stroke-width="1"/><rect x="476.68" y="245.13" width="2.17" height="12.42" fill="#ef4444" opacity="0.9"/><line x1="481.38" y1="246.37" x2="481.38" y2="265.83" stroke="#22c55e" stroke-width="1"/><rect x="480.30" y="256.31" width="2.17" height="2.07" fill="#22c55e" opacity="0.9"/><line x1="485.00" y1="254.65" x2="485.00" y2="268.73" stroke="#ef4444" stroke-width="1"/><rect x="483.91" y="258.38" width="2.17" height="1.00" fill="#ef4444" opacity="0.9"/><line x1="488.62" y1="255.89" x2="488.62" y2="273.70" stroke="#ef4444" stroke-width="1"/><rect x="487.53" y="259.21" width="2.17" height="6.21" fill="#ef4444" opacity="0.9"/><line x1="492.23" y1="259.21" x2="492.23" y2="276.19" stroke="#ef4444" stroke-width="1"/><rect x="491.15" y="263.35" width="2.17" height="10.77" fill="#ef4444" opacity="0.9"/><line x1="495.85" y1="265.00" x2="495.85" y2="283.64" stroke="#22c55e" stroke-width="1"/><rect x="494.77" y="265.42" width="2.17" height="9.11" fill="#22c55e" opacity="0.9"/><line x1="499.47" y1="258.38" x2="499.47" y2="281.16" stroke="#ef4444" stroke-width="1"/><rect x="498.38" y="265.00" width="2.17" height="2.07" fill="#ef4444" opacity="0.9"/><line x1="503.09" y1="252.58" x2="503.09" y2="275.36" stroke="#22c55e" stroke-width="1"/><rect x="502.00" y="265.42" width="2.17" height="1.24" fill="#22c55e" opacity="0.9"/><line x1="506.70" y1="254.65" x2="506.70" y2="265.42" stroke="#22c55e" stroke-width="1"/><rect x="505.62" y="257.55" width="2.17" height="6.21" fill="#22c55e" opacity="0.9"/><line x1="510.32" y1="235.60" x2="510.32" y2="260.03" stroke="#22c55e" stroke-width="1"/><rect x="509.23" y="238.50" width="2.17" height="19.47" fill="#22c55e" opacity="0.9"/><line x1="513.94" y1="237.26" x2="513.94" y2="263.35" stroke="#ef4444" stroke-width="1"/><rect x="512.85" y="239.74" width="2.17" height="19.88" fill="#ef4444" opacity="0.9"/><line x1="517.55" y1="254.24" x2="517.55" y2="269.15" stroke="#ef4444" stroke-width="1"/><rect x="516.47" y="260.45" width="2.17" height="2.07" fill="#ef4444" opacity="0.9"/><line x1="521.17" y1="256.72" x2="521.17" y2="272.87" stroke="#ef4444" stroke-width="1"/><rect x="520.09" y="264.18" width="2.17" height="5.80" fill="#ef4444" opacity="0.9"/><line x1="524.79" y1="248.02" x2="524.79" y2="269.97" stroke="#22c55e" stroke-width="1"/><rect x="523.70" y="254.65" width="2.17" height="15.32" fill="#22c55e" opacity="0.9"/><line x1="528.40" y1="254.65" x2="528.40" y2="461.31" stroke="#ef4444" stroke-width="1"/><rect x="527.32" y="254.65" width="2.17" height="128.39" fill="#ef4444" opacity="0.9"/><line x1="532.02" y1="377.24" x2="532.02" y2="409.54" stroke="#ef4444" stroke-width="1"/><rect x="530.94" y="382.21" width="2.17" height="14.50" fill="#ef4444" opacity="0.9"/><line x1="535.64" y1="368.54" x2="535.64" y2="423.21" stroke="#22c55e" stroke-width="1"/><rect x="534.55" y="374.34" width="2.17" height="21.54" fill="#22c55e" opacity="0.9"/><line x1="539.26" y1="371.86" x2="539.26" y2="414.93" stroke="#ef4444" stroke-width="1"/><rect x="538.17" y="374.34" width="2.17" height="38.93" fill="#ef4444" opacity="0.9"/><line x1="542.87" y1="397.12" x2="542.87" y2="418.24" stroke="#22c55e" stroke-width="1"/><rect x="541.79" y="400.02" width="2.17" height="13.25" fill="#22c55e" opacity="0.9"/><line x1="546.49" y1="388.01" x2="546.49" y2="400.43" stroke="#22c55e" stroke-width="1"/><rect x="545.40" y="397.95" width="2.17" height="1.66" fill="#22c55e" opacity="0.9"/><line x1="550.11" y1="383.45" x2="550.11" y2="397.53" stroke="#22c55e" stroke-width="1"/><rect x="549.02" y="392.98" width="2.17" height="4.56" fill="#22c55e" opacity="0.9"/><line x1="553.72" y1="390.08" x2="553.72" y2="404.16" stroke="#ef4444" stroke-width="1"/><rect x="552.64" y="392.15" width="2.17" height="6.21" fill="#ef4444" opacity="0.9"/><line x1="557.34" y1="398.36" x2="557.34" y2="409.13" stroke="#ef4444" stroke-width="1"/><rect x="556.26" y="398.36" width="2.17" height="4.14" fill="#ef4444" opacity="0.9"/><line x1="560.96" y1="398.36" x2="560.96" y2="412.03" stroke="#ef4444" stroke-width="1"/><rect x="559.87" y="404.16" width="2.17" height="2.90" fill="#ef4444" opacity="0.9"/><line x1="564.57" y1="388.84" x2="564.57" y2="407.47" stroke="#22c55e" stroke-width="1"/><rect x="563.49" y="397.53" width="2.17" height="7.04" fill="#22c55e" opacity="0.9"/><line x1="568.19" y1="397.12" x2="568.19" y2="409.96" stroke="#ef4444" stroke-width="1"/><rect x="567.11" y="397.12" width="2.17" height="11.18" fill="#ef4444" opacity="0.9"/><line x1="571.81" y1="406.64" x2="571.81" y2="416.17" stroke="#22c55e" stroke-width="1"/><rect x="570.72" y="407.47" width="2.17" height="2.07" fill="#22c55e" opacity="0.9"/><line x1="575.43" y1="402.92" x2="575.43" y2="411.20" stroke="#ef4444" stroke-width="1"/><rect x="574.34" y="406.23" width="2.17" height="2.90" fill="#ef4444" opacity="0.9"/><line x1="579.04" y1="407.06" x2="579.04" y2="437.29" stroke="#ef4444" stroke-width="1"/><rect x="577.96" y="407.47" width="2.17" height="3.31" fill="#ef4444" opacity="0.9"/><line x1="582.66" y1="399.19" x2="582.66" y2="427.35" stroke="#ef4444" stroke-width="1"/><rect x="581.57" y="411.61" width="2.17" height="5.38" fill="#ef4444" opacity="0.9"/><line x1="586.28" y1="404.99" x2="586.28" y2="422.38" stroke="#ef4444" stroke-width="1"/><rect x="585.19" y="412.44" width="2.17" height="2.90" fill="#ef4444" opacity="0.9"/><line x1="589.89" y1="397.12" x2="589.89" y2="414.93" stroke="#22c55e" stroke-width="1"/><rect x="588.81" y="403.74" width="2.17" height="11.18" fill="#22c55e" opacity="0.9"/><line x1="593.51" y1="400.02" x2="593.51" y2="411.20" stroke="#ef4444" stroke-width="1"/><rect x="592.43" y="401.67" width="2.17" height="9.11" fill="#ef4444" opacity="0.9"/><line x1="597.13" y1="409.54" x2="597.13" y2="426.11" stroke="#ef4444" stroke-width="1"/><rect x="596.04" y="409.96" width="2.17" height="7.87" fill="#ef4444" opacity="0.9"/><line x1="600.74" y1="416.58" x2="600.74" y2="424.87" stroke="#ef4444" stroke-width="1"/><rect x="599.66" y="419.07" width="2.17" height="5.80" fill="#ef4444" opacity="0.9"/><line x1="604.36" y1="419.07" x2="604.36" y2="437.70" stroke="#ef4444" stroke-width="1"/><rect x="603.28" y="424.87" width="2.17" height="3.31" fill="#ef4444" opacity="0.9"/><line x1="607.98" y1="421.55" x2="607.98" y2="429.01" stroke="#22c55e" stroke-width="1"/><rect x="606.89" y="426.11" width="2.17" height="1.00" fill="#22c55e" opacity="0.9"/><line x1="611.60" y1="424.45" x2="611.60" y2="429.84" stroke="#ef4444" stroke-width="1"/><rect x="610.51" y="426.52" width="2.17" height="1.66" fill="#ef4444" opacity="0.9"/><line x1="615.21" y1="426.94" x2="615.21" y2="442.67" stroke="#ef4444" stroke-width="1"/><rect x="614.13" y="429.42" width="2.17" height="4.14" fill="#ef4444" opacity="0.9"/><line x1="618.83" y1="434.39" x2="618.83" y2="447.23" stroke="#ef4444" stroke-width="1"/><rect x="617.74" y="435.63" width="2.17" height="5.38" fill="#ef4444" opacity="0.9"/><line x1="622.45" y1="441.02" x2="622.45" y2="452.20" stroke="#ef4444" stroke-width="1"/><rect x="621.36" y="441.02" width="2.17" height="7.04" fill="#ef4444" opacity="0.9"/><line x1="626.06" y1="444.75" x2="626.06" y2="458.00" stroke="#22c55e" stroke-width="1"/><rect x="624.98" y="445.99" width="2.17" height="3.31" fill="#22c55e" opacity="0.9"/><line x1="629.68" y1="446.40" x2="629.68" y2="455.51" stroke="#ef4444" stroke-width="1"/><rect x="628.60" y="448.06" width="2.17" height="7.04" fill="#ef4444" opacity="0.9"/><line x1="633.30" y1="451.37" x2="633.30" y2="462.14" stroke="#22c55e" stroke-width="1"/><rect x="632.21" y="455.10" width="2.17" height="1.00" fill="#22c55e" opacity="0.9"/><line x1="636.91" y1="434.39" x2="636.91" y2="460.48" stroke="#22c55e" stroke-width="1"/><rect x="635.83" y="440.19" width="2.17" height="20.29" fill="#22c55e" opacity="0.9"/><line x1="640.53" y1="440.19" x2="640.53" y2="453.86" stroke="#ef4444" stroke-width="1"/><rect x="639.45" y="440.19" width="2.17" height="8.70" fill="#ef4444" opacity="0.9"/><line x1="644.15" y1="452.61" x2="644.15" y2="463.80" stroke="#ef4444" stroke-width="1"/><rect x="643.06" y="452.61" width="2.17" height="5.80" fill="#ef4444" opacity="0.9"/><line x1="647.77" y1="449.30" x2="647.77" y2="460.07" stroke="#22c55e" stroke-width="1"/><rect x="646.68" y="452.61" width="2.17" height="7.45" fill="#22c55e" opacity="0.9"/><line x1="651.38" y1="442.67" x2="651.38" y2="456.34" stroke="#22c55e" stroke-width="1"/><rect x="650.30" y="450.96" width="2.17" height="2.07" fill="#22c55e" opacity="0.9"/><line x1="655.00" y1="445.57" x2="655.00" y2="454.69" stroke="#ef4444" stroke-width="1"/><rect x="653.91" y="450.96" width="2.17" height="3.31" fill="#ef4444" opacity="0.9"/><line x1="658.62" y1="449.30" x2="658.62" y2="456.34" stroke="#22c55e" stroke-width="1"/><rect x="657.53" y="449.30" width="2.17" height="6.63" fill="#22c55e" opacity="0.9"/><line x1="662.23" y1="447.23" x2="662.23" y2="455.51" stroke="#ef4444" stroke-width="1"/><rect x="661.15" y="448.89" width="2.17" height="6.21" fill="#ef4444" opacity="0.9"/><line x1="665.85" y1="448.89" x2="665.85" y2="457.58" stroke="#ef4444" stroke-width="1"/><rect x="664.77" y="452.61" width="2.17" height="4.97" fill="#ef4444" opacity="0.9"/><line x1="669.47" y1="458.00" x2="669.47" y2="505.21" stroke="#ef4444" stroke-width="1"/><rect x="668.38" y="458.00" width="2.17" height="41.83" fill="#ef4444" opacity="0.9"/><line x1="673.09" y1="494.44" x2="673.09" y2="512.67" stroke="#ef4444" stroke-width="1"/><rect x="672.00" y="499.41" width="2.17" height="1.66" fill="#ef4444" opacity="0.9"/><line x1="676.70" y1="490.72" x2="676.70" y2="509.77" stroke="#22c55e" stroke-width="1"/><rect x="675.62" y="491.96" width="2.17" height="8.28" fill="#22c55e" opacity="0.9"/><line x1="680.32" y1="465.45" x2="680.32" y2="500.66" stroke="#22c55e" stroke-width="1"/><rect x="679.23" y="472.08" width="2.17" height="18.64" fill="#22c55e" opacity="0.9"/><line x1="683.94" y1="461.31" x2="683.94" y2="474.56" stroke="#ef4444" stroke-width="1"/><rect x="682.85" y="469.59" width="2.17" height="2.07" fill="#ef4444" opacity="0.9"/><line x1="687.55" y1="467.11" x2="687.55" y2="477.05" stroke="#ef4444" stroke-width="1"/><rect x="686.47" y="468.77" width="2.17" height="8.28" fill="#ef4444" opacity="0.9"/><line x1="691.17" y1="469.59" x2="691.17" y2="474.98" stroke="#22c55e" stroke-width="1"/><rect x="690.09" y="472.08" width="2.17" height="1.24" fill="#22c55e" opacity="0.9"/><line x1="694.79" y1="474.15" x2="694.79" y2="479.12" stroke="#ef4444" stroke-width="1"/><rect x="693.70" y="474.98" width="2.17" height="4.14" fill="#ef4444" opacity="0.9"/><line x1="698.40" y1="479.95" x2="698.40" y2="489.89" stroke="#ef4444" stroke-width="1"/><rect x="697.32" y="479.95" width="2.17" height="4.97" fill="#ef4444" opacity="0.9"/><line x1="702.02" y1="482.02" x2="702.02" y2="493.20" stroke="#ef4444" stroke-width="1"/><rect x="700.94" y="482.02" width="2.17" height="10.35" fill="#ef4444" opacity="0.9"/><line x1="705.64" y1="489.06" x2="705.64" y2="498.58" stroke="#ef4444" stroke-width="1"/><rect x="704.55" y="492.37" width="2.17" height="1.00" fill="#ef4444" opacity="0.9"/><line x1="709.26" y1="484.09" x2="709.26" y2="494.86" stroke="#22c55e" stroke-width="1"/><rect x="708.17" y="489.47" width="2.17" height="5.38" fill="#22c55e" opacity="0.9"/><line x1="712.87" y1="490.72" x2="712.87" y2="502.31" stroke="#ef4444" stroke-width="1"/><rect x="711.79" y="491.13" width="2.17" height="10.35" fill="#ef4444" opacity="0.9"/><line x1="716.49" y1="501.48" x2="716.49" y2="523.02" stroke="#ef4444" stroke-width="1"/><rect x="715.40" y="501.48" width="2.17" height="18.22" fill="#ef4444" opacity="0.9"/><line x1="720.11" y1="510.60" x2="720.11" y2="524.68" stroke="#22c55e" stroke-width="1"/><rect x="719.02" y="510.60" width="2.17" height="9.94" fill="#22c55e" opacity="0.9"/><line x1="723.72" y1="501.07" x2="723.72" y2="515.98" stroke="#ef4444" stroke-width="1"/><rect x="722.64" y="508.11" width="2.17" height="2.48" fill="#ef4444" opacity="0.9"/><line x1="727.34" y1="512.67" x2="727.34" y2="520.12" stroke="#ef4444" stroke-width="1"/><rect x="726.26" y="514.74" width="2.17" height="5.38" fill="#ef4444" opacity="0.9"/><line x1="730.96" y1="510.18" x2="730.96" y2="527.58" stroke="#22c55e" stroke-width="1"/><rect x="729.87" y="515.15" width="2.17" height="3.73" fill="#22c55e" opacity="0.9"/><line x1="734.57" y1="509.35" x2="734.57" y2="522.61" stroke="#ef4444" stroke-width="1"/><rect x="733.49" y="513.08" width="2.17" height="9.11" fill="#ef4444" opacity="0.9"/><line x1="738.19" y1="521.36" x2="738.19" y2="540.00" stroke="#ef4444" stroke-width="1"/><rect x="737.11" y="521.78" width="2.17" height="9.53" fill="#ef4444" opacity="0.9"/><text x="10" y="20" fill="#9333ea" font-size="12" font-family="monospace">Kijun (26)</text><text x="10" y="35" fill="#06b6d4" font-size="12" font-family="monospace">Tenkan (9)</text><text x="10" y="50" fill="#22c55e" font-size="12" font-family="monospace" opacity="0.5">Cloud</text></svg>