<svg width="800" height="600" xmlns="http://www.w3.org/2000/svg"><rect width="800" height="600" fill="#0a0a0a"/><path d="M 262.30 337.80 L 262.30 337.80 L 265.70 330.78 L 269.10 330.51 L 272.50 330.51 L 275.90 333.59 L 279.30 333.59 L 282.70 333.59 L 286.10 333.89 L 289.50 333.89 L 292.90 344.01 L 296.30 350.86 L 299.70 350.86 L 303.10 343.51 L 306.50 343.51 L 309.90 343.51 L 313.30 342.46 L 316.70 338.91 L 320.10 331.97 L 323.50 330.50 L 326.90 330.50 L 330.30 327.55 L 333.70 327.55 L 337.10 325.68 L 340.50 325.68 L 343.90 325.68 L 347.30 325.68 L 350.70 334.79 L 354.10 331.72 L 357.50 317.84 L 360.90 311.21 L 364.30 310.60 L 367.70 295.50 L 371.10 295.50 L 374.50 284.74 L 377.90 280.78 L 381.30 279.26 L 384.70 277.28 L 388.10 268.71 L 391.50 268.71 L 394.90 266.83 L 398.30 264.29 L 401.70 264.29 L 405.10 265.75 L 408.50 271.35 L 411.90 268.80 L 415.30 267.98 L 418.70 266.37 L 422.10 268.88 L 425.50 288.07 L 428.90 288.07 L 432.30 290.34 L 432.30 309.03 L 428.90 309.03 L 425.50 309.03 L 422.10 309.03 L 418.70 309.03 L 415.30 309.03 L 411.90 309.03 L 408.50 309.03 L 405.10 309.03 L 401.70 309.03 L 398.30 309.03 L 394.90 309.03 L 391.50 309.03 L 388.10 314.58 L 384.70 314.58 L 381.30 314.58 L 377.90 314.58 L 374.50 314.58 L 371.10 321.27 L 367.70 321.27 L 364.30 336.37 L 360.90 336.37 L 357.50 336.66 L 354.10 337.19 L 350.70 351.24 L 347.30 360.40 L 343.90 360.40 L 340.50 360.40 L 337.10 360.40 L 333.70 360.40 L 330.30 360.40 L 326.90 360.40 L 323.50 360.40 L 320.10 360.40 L 316.70 360.40 L 313.30 360.40 L 309.90 360.40 L 306.50 360.40 L 303.10 360.40 L 299.70 360.40 L 296.30 360.40 L 292.90 360.40 L 289.50 360.40 L 286.10 360.40 L 282.70 360.40 L 279.30 347.42 L 275.90 343.10 L 272.50 343.10 L 269.10 343.10 L 265.70 343.10 L 262.30 343.10 Z" fill="#22c55e" opacity="0.2" stroke="none"/><path d="M 146.70 295.30 L 146.70 295.30 L 150.10 295.18 L 153.50 297.54 L 156.90 309.61 L 160.30 316.59 L 163.70 323.56 L 167.10 324.65 L 170.50 342.21 L 173.90 360.97 L 177.30 360.97 L 180.70 360.97 L 184.10 360.97 L 187.50 373.43 L 190.90 375.70 L 194.30 383.73 L 197.70 384.09 L 201.10 391.89 L 204.50 387.30 L 207.90 380.28 L 211.30 379.24 L 214.70 377.14 L 218.10 375.36 L 221.50 377.58 L 224.90 378.66 L 228.30 374.13 L 231.70 369.60 L 235.10 368.40 L 238.50 368.20 L 241.90 368.20 L 245.30 363.75 L 248.70 363.38 L 252.10 363.38 L 255.50 363.38 L 258.90 346.80 L 435.70 310.29 L 439.10 310.53 L 442.50 316.16 L 445.90 325.78 L 449.30 325.78 L 452.70 333.15 L 456.10 334.16 L 459.50 334.97 L 462.90 336.43 L 466.30 337.29 L 469.70 338.40 L 473.10 338.40 L 476.50 338.27 L 479.90 329.21 L 483.30 327.58 L 486.70 327.58 L 490.10 329.85 L 493.50 341.39 L 496.90 336.26 L 500.30 334.97 L 503.70 333.49 L 507.10 333.49 L 510.50 342.06 L 513.90 350.13 L 517.30 354.99 L 520.70 356.30 L 524.10 367.33 L 527.50 368.88 L 530.90 368.88 L 534.30 371.15 L 537.70 381.58 L 541.10 386.99 L 544.50 404.14 L 547.90 430.61 L 551.30 440.49 L 554.70 443.17 L 558.10 445.37 L 561.50 445.37 L 564.90 445.37 L 568.30 456.64 L 571.70 456.64 L 575.10 458.09 L 578.50 458.09 L 581.90 457.89 L 585.30 447.96 L 588.70 452.03 L 592.10 454.30 L 595.50 454.30 L 598.90 454.30 L 602.30 469.00 L 605.70 471.31 L 609.10 474.10 L 612.50 474.60 L 615.90 476.80 L 619.30 476.80 L 622.70 476.80 L 626.10 488.07 L 629.50 488.07 L 632.90 489.52 L 636.30 483.84 L 639.70 479.63 L 643.10 481.50 L 646.50 478.05 L 649.90 478.05 L 649.90 427.21 L 646.50 427.21 L 643.10 427.21 L 639.70 427.21 L 636.30 427.21 L 632.90 427.21 L 629.50 427.21 L 626.10 427.21 L 622.70 427.21 L 619.30 427.21 L 615.90 427.21 L 612.50 425.63 L 609.10 423.92 L 605.70 423.92 L 602.30 422.31 L 598.90 420.29 L 595.50 405.55 L 592.10 405.55 L 588.70 405.55 L 585.30 405.55 L 581.90 405.07 L 578.50 387.62 L 575.10 383.09 L 571.70 383.09 L 568.30 383.09 L 564.90 383.09 L 561.50 383.09 L 558.10 383.09 L 554.70 383.09 L 551.30 383.09 L 547.90 370.29 L 544.50 343.82 L 541.10 337.69 L 537.70 332.27 L 534.30 321.84 L 530.90 321.84 L 527.50 321.84 L 524.10 321.08 L 520.70 313.09 L 517.30 313.09 L 513.90 313.09 L 510.50 313.09 L 507.10 313.09 L 503.70 313.09 L 500.30 313.09 L 496.90 313.09 L 493.50 313.09 L 490.10 313.09 L 486.70 313.09 L 483.30 313.09 L 479.90 313.09 L 476.50 313.09 L 473.10 313.09 L 469.70 313.09 L 466.30 313.09 L 462.90 313.09 L 459.50 313.09 L 456.10 313.09 L 452.70 313.09 L 449.30 313.09 L 445.90 313.09 L 442.50 309.03 L 439.10 309.03 L 435.70 309.03 L 258.90 342.26 L 255.50 342.26 L 252.10 342.26 L 248.70 342.26 L 245.30 342.26 L 241.90 342.26 L 238.50 342.26 L 235.10 342.26 L 231.70 342.26 L 228.30 342.26 L 224.90 342.26 L 221.50 342.26 L 218.10 342.26 L 214.70 348.35 L 211.30 327.42 L 207.90 300.11 L 204.50 300.11 L 201.10 300.11 L 197.70 300.11 L 194.30 300.11 L 190.90 300.11 L 187.50 289.25 L 184.10 289.25 L 180.70 289.25 L 177.30 289.25 L 173.90 289.25 L 170.50 285.13 L 167.10 285.13 L 163.70 285.13 L 160.30 285.13 L 156.90 285.13 L 153.50 285.13 L 150.10 285.13 L 146.70 276.38 Z" fill="#ef4444" opacity="0.2" stroke="none"/><path d="M 146.70 276.38 L 150.10 285.13 L 153.50 285.13 L 156.90 285.13 L 160.30 285.13 L 163.70 285.13 L 167.10 285.13 L 170.50 285.13 L 173.90 289.25 L 177.30 289.25 L 180.70 289.25 L 184.10 289.25 L 187.50 289.25 L 190.90 300.11 L 194.30 300.11 L 197.70 300.11 L 201.10 300.11 L 204.50 300.11 L 207.90 300.11 L 211.30 327.42 L 214.70 348.35 L 218.10 287.08 L 221.50 287.08 L 224.90 287.08 L 228.30 287.08 L 231.70 287.08 L 235.10 287.08 L 238.50 286.84 L 241.90 286.57 L 245.30 298.34 L 248.70 305.32 L 252.10 306.36 L 255.50 306.36 L 258.90 323.92 L 262.30 343.10 L 265.70 343.10 L 269.10 343.10 L 272.50 343.10 L 275.90 343.10 L 279.30 347.42 L 282.70 363.48 L 286.10 364.21 L 289.50 364.21 L 292.90 364.21 L 296.30 364.21 L 299.70 364.21 L 303.10 364.79 L 306.50 364.79 L 309.90 376.67 L 313.30 378.84 L 316.70 378.84 L 320.10 378.84 L 323.50 378.84 L 326.90 378.84 L 330.30 378.84 L 333.70 381.30 L 337.10 381.30 L 340.50 381.30 L 343.90 381.30 L 347.30 364.81 L 350.70 351.24 L 354.10 337.19 L 357.50 336.66 L 360.90 336.66 L 364.30 336.66 L 367.70 336.66 L 371.10 336.66 L 374.50 336.66 L 377.90 336.66 L 381.30 336.66 L 384.70 336.66 L 388.10 336.66 L 391.50 331.12 L 394.90 331.12 L 398.30 331.12 L 401.70 331.12 L 405.10 331.12 L 408.50 331.12 L 411.90 331.12 L 415.30 331.12 L 418.70 331.12 L 422.10 331.12 L 425.50 331.12 L 428.90 331.12 L 432.30 331.12 L 435.70 331.12 L 439.10 347.86 L 442.50 347.86 L 445.90 335.84 L 449.30 330.82 L 452.70 330.82 L 456.10 315.72 L 459.50 315.72 L 462.90 301.92 L 466.30 294.00 L 469.70 291.05 L 473.10 291.05 L 476.50 285.16 L 479.90 285.16 L 483.30 281.41 L 486.70 281.41 L 490.10 281.41 L 493.50 281.41 L 496.90 280.81 L 500.30 274.67 L 503.70 273.03 L 507.10 269.80 L 510.50 268.58 L 513.90 286.61 L 517.30 286.61 L 520.70 286.61 L 524.10 297.84 L 527.50 297.84 L 530.90 303.47 L 534.30 313.09 L 537.70 313.09 L 541.10 313.09 L 544.50 313.09 L 547.90 313.09 L 551.30 316.01 L 554.70 316.01 L 558.10 316.01 L 561.50 316.01 L 564.90 316.01 L 568.30 316.01 L 571.70 316.01 L 575.10 316.01 L 578.50 320.55 L 581.90 337.99 L 585.30 338.47 L 588.70 338.47 L 592.10 338.47 L 595.50 338.47 L 598.90 353.21 L 602.30 355.23 L 605.70 356.85 L 609.10 356.85 L 612.50 366.55 L 615.90 368.88 L 619.30 368.88 L 622.70 368.88 L 626.10 379.31 L 629.50 384.73 L 632.90 390.86 L 636.30 417.33 L 639.70 427.21 L 643.10 427.21 L 646.50 427.21 L 649.90 427.21 L 653.30 427.21 L 656.70 427.21 L 660.10 427.21 L 663.50 427.21 L 666.90 427.21 L 670.30 427.21 L 673.70 427.21 L 677.10 427.21 L 680.50 431.74 L 683.90 431.74 L 687.30 431.74 L 690.70 453.76 L 694.10 453.76 L 697.50 453.76 L 700.90 459.14 L 704.30 463.53 L 707.70 463.53 L 711.10 463.53 L 714.50 486.08 L 717.90 486.08 L 721.30 488.96 L 724.70 488.96 L 728.10 488.57 L 731.50 486.06 L 734.90 486.06 L 738.30 486.06" fill="none" stroke="#9333ea" stroke-width="2" opacity="0.8"/><path d="M 88.90 101.74 L 92.30 110.49 L 95.70 106.09 L 99.10 106.09 L 102.50 109.02 L 105.90 118.54 L 109.30 118.54 L 112.70 118.54 L 116.10 122.66 L 119.50 122.66 L 122.90 133.17 L 126.30 156.37 L 129.70 289.25 L 133.10 300.11 L 136.50 300.11 L 139.90 300.11 L 143.30 300.11 L 146.70 300.11 L 150.10 300.11 L 153.50 327.42 L 156.90 348.35 L 160.30 310.64 L 163.70 307.40 L 167.10 298.38 L 170.50 288.84 L 173.90 287.08 L 177.30 287.08 L 180.70 286.84 L 184.10 277.25 L 187.50 272.42 L 190.90 272.21 L 194.30 253.54 L 197.70 270.46 L 201.10 282.60 L 204.50 285.28 L 207.90 285.28 L 211.30 285.28 L 214.70 285.28 L 218.10 285.28 L 221.50 289.60 L 224.90 305.65 L 228.30 306.38 L 231.70 306.38 L 235.10 303.53 L 238.50 303.53 L 241.90 308.52 L 245.30 320.87 L 248.70 327.86 L 252.10 340.77 L 255.50 342.94 L 258.90 360.50 L 262.30 378.84 L 265.70 378.84 L 269.10 378.84 L 272.50 378.84 L 275.90 403.76 L 279.30 403.97 L 282.70 403.97 L 286.10 403.97 L 289.50 419.56 L 292.90 410.40 L 296.30 396.36 L 299.70 394.28 L 303.10 389.49 L 306.50 385.93 L 309.90 378.49 L 313.30 378.49 L 316.70 369.43 L 320.10 360.36 L 323.50 357.97 L 326.90 357.56 L 330.30 357.56 L 333.70 346.20 L 337.10 345.47 L 340.50 345.47 L 343.90 345.47 L 347.30 328.78 L 350.70 324.36 L 354.10 324.36 L 357.50 324.36 L 360.90 324.36 L 364.30 330.52 L 367.70 330.52 L 371.10 330.52 L 374.50 331.12 L 377.90 331.12 L 381.30 351.36 L 384.70 365.07 L 388.10 365.07 L 391.50 355.90 L 394.90 355.90 L 398.30 355.90 L 401.70 353.81 L 405.10 346.70 L 408.50 332.83 L 411.90 329.88 L 415.30 329.88 L 418.70 323.99 L 422.10 323.99 L 425.50 320.24 L 428.90 320.24 L 432.30 320.24 L 435.70 320.24 L 439.10 321.72 L 442.50 315.58 L 445.90 299.84 L 449.30 291.59 L 452.70 290.37 L 456.10 275.27 L 459.50 275.27 L 462.90 267.57 L 466.30 267.57 L 469.70 267.48 L 473.10 263.51 L 476.50 252.26 L 479.90 252.26 L 483.30 252.26 L 486.70 247.16 L 490.10 247.16 L 493.50 250.09 L 496.90 261.89 L 500.30 262.93 L 503.70 262.93 L 507.10 262.93 L 510.50 269.17 L 513.90 289.54 L 517.30 289.54 L 520.70 294.07 L 524.10 322.74 L 527.50 323.22 L 530.90 328.85 L 534.30 338.47 L 537.70 338.47 L 541.10 353.21 L 544.50 355.23 L 547.90 356.85 L 551.30 356.85 L 554.70 358.56 L 558.10 360.80 L 561.50 360.80 L 564.90 360.52 L 568.30 342.41 L 571.70 339.15 L 575.10 339.15 L 578.50 339.15 L 581.90 344.79 L 585.30 334.04 L 588.70 331.46 L 592.10 328.51 L 595.50 328.51 L 598.90 330.91 L 602.30 345.03 L 605.70 353.14 L 609.10 355.76 L 612.50 368.12 L 615.90 368.88 L 619.30 368.88 L 622.70 373.41 L 626.10 383.84 L 629.50 389.26 L 632.90 417.42 L 636.30 443.88 L 639.70 453.76 L 643.10 459.14 L 646.50 463.53 L 649.90 463.53 L 653.30 463.53 L 656.70 486.08 L 660.10 486.08 L 663.50 488.96 L 666.90 488.96 L 670.30 488.57 L 673.70 468.72 L 677.10 476.86 L 680.50 476.86 L 683.90 476.86 L 687.30 476.86 L 690.70 484.24 L 694.10 488.86 L 697.50 494.43 L 700.90 490.07 L 704.30 490.07 L 707.70 490.07 L 711.10 490.07 L 714.50 490.07 L 717.90 490.07 L 721.30 490.07 L 724.70 478.71 L 728.10 470.68 L 731.50 476.93 L 734.90 470.04 L 738.30 470.04" fill="none" stroke="#06b6d4" stroke-width="2" opacity="0.8"/><line x1="61.70" y1="60.00" x2="61.70" y2="140.91" stroke="#ef4444" stroke-width="1"/><rect x="60.68" y="72.31" width="2.04" height="47.32" fill="#ef4444" opacity="0.9"/><line x1="65.10" y1="115.20" x2="65.10" y2="143.47" stroke="#ef4444" stroke-width="1"/><rect x="64.08" y="119.63" width="2.04" height="4.73" fill="#ef4444" opacity="0.9"/><line x1="68.50" y1="112.55" x2="68.50" y2="131.06" stroke="#ef4444" stroke-width="1"/><rect x="67.48" y="124.34" width="2.04" height="5.43" fill="#ef4444" opacity="0.9"/><line x1="71.90" y1="113.32" x2="71.90" y2="131.87" stroke="#22c55e" stroke-width="1"/><rect x="70.88" y="129.04" width="2.04" height="1.00" fill="#22c55e" opacity="0.9"/><line x1="75.30" y1="119.29" x2="75.30" y2="134.68" stroke="#22c55e" stroke-width="1"/><rect x="74.28" y="125.02" width="2.04" height="4.02" fill="#22c55e" opacity="0.9"/><line x1="78.70" y1="95.56" x2="78.70" y2="126.21" stroke="#22c55e" stroke-width="1"/><rect x="77.68" y="101.10" width="2.04" height="23.92" fill="#22c55e" opacity="0.9"/><line x1="82.10" y1="93.11" x2="82.10" y2="123.91" stroke="#ef4444" stroke-width="1"/><rect x="81.08" y="101.10" width="2.04" height="13.10" fill="#ef4444" opacity="0.9"/><line x1="85.50" y1="77.50" x2="85.50" y2="115.49" stroke="#22c55e" stroke-width="1"/><rect x="84.48" y="90.79" width="2.04" height="23.40" fill="#22c55e" opacity="0.9"/><line x1="88.90" y1="85.90" x2="88.90" y2="102.12" stroke="#ef4444" stroke-width="1"/><rect x="87.88" y="90.79" width="2.04" height="2.33" fill="#ef4444" opacity="0.9"/><line x1="92.30" y1="92.45" x2="92.30" y2="127.05" stroke="#ef4444" stroke-width="1"/><rect x="91.28" y="93.12" width="2.04" height="23.38" fill="#ef4444" opacity="0.9"/><line x1="95.70" y1="112.26" x2="95.70" y2="121.97" stroke="#ef4444" stroke-width="1"/><rect x="94.68" y="116.51" width="2.04" height="2.17" fill="#ef4444" opacity="0.9"/><line x1="99.10" y1="102.40" x2="99.10" y2="133.11" stroke="#22c55e" stroke-width="1"/><rect x="98.08" y="103.95" width="2.04" height="14.73" fill="#22c55e" opacity="0.9"/><line x1="102.50" y1="85.76" x2="102.50" y2="140.53" stroke="#ef4444" stroke-width="1"/><rect x="101.48" y="103.95" width="2.04" height="28.36" fill="#ef4444" opacity="0.9"/><line x1="105.90" y1="126.25" x2="105.90" y2="159.57" stroke="#ef4444" stroke-width="1"/><rect x="104.88" y="132.31" width="2.04" height="2.51" fill="#ef4444" opacity="0.9"/><line x1="109.30" y1="120.01" x2="109.30" y2="136.91" stroke="#22c55e" stroke-width="1"/><rect x="108.28" y="122.13" width="2.04" height="12.69" fill="#22c55e" opacity="0.9"/><line x1="112.70" y1="117.59" x2="112.70" y2="135.41" stroke="#ef4444" stroke-width="1"/><rect x="111.68" y="122.13" width="2.04" height="11.23" fill="#ef4444" opacity="0.9"/><line x1="116.10" y1="120.79" x2="116.10" y2="136.30" stroke="#ef4444" stroke-width="1"/><rect x="115.08" y="133.36" width="2.04" height="1.87" fill="#ef4444" opacity="0.9"/><line x1="119.50" y1="120.71" x2="119.50" y2="135.38" stroke="#22c55e" stroke-width="1"/><rect x="118.48" y="124.36" width="2.04" height="10.84" fill="#22c55e" opacity="0.9"/><line x1="122.90" y1="107.47" x2="122.90" y2="180.58" stroke="#ef4444" stroke-width="1"/><rect x="121.88" y="124.36" width="2.04" height="45.85" fill="#ef4444" opacity="0.9"/><line x1="126.30" y1="162.09" x2="126.30" y2="226.98" stroke="#ef4444" stroke-width="1"/><rect x="125.28" y="170.21" width="2.04" height="43.15" fill="#ef4444" opacity="0.9"/><line x1="129.70" y1="203.95" x2="129.70" y2="492.75" stroke="#ef4444" stroke-width="1"/><rect x="128.68" y="213.36" width="2.04" height="70.37" fill="#ef4444" opacity="0.9"/><line x1="133.10" y1="275.34" x2="133.10" y2="316.83" stroke="#ef4444" stroke-width="1"/><rect x="132.08" y="283.85" width="2.04" height="10.25" fill="#ef4444" opacity="0.9"/><line x1="136.50" y1="282.10" x2="136.50" y2="335.16" stroke="#ef4444" stroke-width="1"/><rect x="135.48" y="294.09" width="2.04" height="35.47" fill="#ef4444" opacity="0.9"/><line x1="139.90" y1="293.52" x2="139.90" y2="333.58" stroke="#22c55e" stroke-width="1"/><rect x="138.88" y="295.20" width="2.04" height="34.37" fill="#22c55e" opacity="0.9"/><line x1="143.30" y1="291.12" x2="143.30" y2="304.66" stroke="#ef4444" stroke-width="1"/><rect x="142.28" y="295.20" width="2.04" height="9.26" fill="#ef4444" opacity="0.9"/><line x1="146.70" y1="297.30" x2="146.70" y2="321.41" stroke="#ef4444" stroke-width="1"/><rect x="145.68" y="304.45" width="2.04" height="11.24" fill="#ef4444" opacity="0.9"/><line x1="150.10" y1="312.25" x2="150.10" y2="345.94" stroke="#ef4444" stroke-width="1"/><rect x="149.08" y="315.69" width="2.04" height="10.28" fill="#ef4444" opacity="0.9"/><line x1="153.50" y1="312.41" x2="153.50" y2="345.47" stroke="#22c55e" stroke-width="1"/><rect x="152.48" y="324.93" width="2.04" height="1.04" fill="#22c55e" opacity="0.9"/><line x1="156.90" y1="298.89" x2="156.90" y2="326.29" stroke="#22c55e" stroke-width="1"/><rect x="155.88" y="309.57" width="2.04" height="15.36" fill="#22c55e" opacity="0.9"/><line x1="160.30" y1="299.15" x2="160.30" y2="316.63" stroke="#22c55e" stroke-width="1"/><rect x="159.28" y="303.86" width="2.04" height="5.72" fill="#22c55e" opacity="0.9"/><line x1="163.70" y1="268.85" x2="163.70" y2="316.20" stroke="#22c55e" stroke-width="1"/><rect x="162.68" y="278.86" width="2.04" height="24.99" fill="#22c55e" opacity="0.9"/><line x1="167.10" y1="250.81" x2="167.10" y2="278.87" stroke="#22c55e" stroke-width="1"/><rect x="166.08" y="257.66" width="2.04" height="21.21" fill="#22c55e" opacity="0.9"/><line x1="170.50" y1="231.74" x2="170.50" y2="259.35" stroke="#22c55e" stroke-width="1"/><rect x="169.48" y="246.53" width="2.04" height="11.13" fill="#22c55e" opacity="0.9"/><line x1="173.90" y1="228.22" x2="173.90" y2="252.86" stroke="#ef4444" stroke-width="1"/><rect x="172.88" y="246.53" width="2.04" height="2.46" fill="#ef4444" opacity="0.9"/><line x1="177.30" y1="236.03" x2="177.30" y2="256.86" stroke="#22c55e" stroke-width="1"/><rect x="176.28" y="238.64" width="2.04" height="10.39" fill="#22c55e" opacity="0.9"/><line x1="180.70" y1="237.84" x2="180.70" y2="270.29" stroke="#ef4444" stroke-width="1"/><rect x="179.68" y="238.64" width="2.04" height="21.97" fill="#ef4444" opacity="0.9"/><line x1="184.10" y1="236.39" x2="184.10" y2="268.35" stroke="#22c55e" stroke-width="1"/><rect x="183.08" y="258.84" width="2.04" height="1.77" fill="#22c55e" opacity="0.9"/><line x1="187.50" y1="229.91" x2="187.50" y2="260.52" stroke="#22c55e" stroke-width="1"/><rect x="186.48" y="231.46" width="2.04" height="27.38" fill="#22c55e" opacity="0.9"/><line x1="190.90" y1="229.91" x2="190.90" y2="246.09" stroke="#ef4444" stroke-width="1"/><rect x="189.88" y="231.46" width="2.04" height="11.70" fill="#ef4444" opacity="0.9"/><line x1="194.30" y1="238.54" x2="194.30" y2="277.43" stroke="#ef4444" stroke-width="1"/><rect x="193.28" y="243.16" width="2.04" height="30.42" fill="#ef4444" opacity="0.9"/><line x1="197.70" y1="270.65" x2="197.70" y2="312.71" stroke="#ef4444" stroke-width="1"/><rect x="196.68" y="273.58" width="2.04" height="32.82" fill="#ef4444" opacity="0.9"/><line x1="201.10" y1="298.47" x2="201.10" y2="336.99" stroke="#ef4444" stroke-width="1"/><rect x="200.08" y="306.41" width="2.04" height="7.83" fill="#ef4444" opacity="0.9"/><line x1="204.50" y1="281.68" x2="204.50" y2="340.65" stroke="#22c55e" stroke-width="1"/><rect x="203.48" y="284.73" width="2.04" height="29.51" fill="#22c55e" opacity="0.9"/><line x1="207.90" y1="273.38" x2="207.90" y2="306.86" stroke="#ef4444" stroke-width="1"/><rect x="206.88" y="284.73" width="2.04" height="5.62" fill="#ef4444" opacity="0.9"/><line x1="211.30" y1="272.58" x2="211.30" y2="297.28" stroke="#22c55e" stroke-width="1"/><rect x="210.28" y="282.30" width="2.04" height="8.05" fill="#22c55e" opacity="0.9"/><line x1="214.70" y1="272.12" x2="214.70" y2="304.52" stroke="#ef4444" stroke-width="1"/><rect x="213.68" y="282.30" width="2.04" height="18.49" fill="#ef4444" opacity="0.9"/><line x1="218.10" y1="288.75" x2="218.10" y2="305.65" stroke="#22c55e" stroke-width="1"/><rect x="217.08" y="290.73" width="2.04" height="10.06" fill="#22c55e" opacity="0.9"/><line x1="221.50" y1="273.28" x2="221.50" y2="306.82" stroke="#ef4444" stroke-width="1"/><rect x="220.48" y="290.73" width="2.04" height="12.04" fill="#ef4444" opacity="0.9"/><line x1="224.90" y1="297.04" x2="224.90" y2="330.92" stroke="#ef4444" stroke-width="1"/><rect x="223.88" y="302.77" width="2.04" height="20.48" fill="#ef4444" opacity="0.9"/><line x1="228.30" y1="308.91" x2="228.30" y2="334.93" stroke="#22c55e" stroke-width="1"/><rect x="227.28" y="314.69" width="2.04" height="8.55" fill="#22c55e" opacity="0.9"/><line x1="231.70" y1="309.60" x2="231.70" y2="329.13" stroke="#ef4444" stroke-width="1"/><rect x="230.68" y="314.69" width="2.04" height="9.62" fill="#ef4444" opacity="0.9"/><line x1="235.10" y1="303.68" x2="235.10" y2="331.43" stroke="#22c55e" stroke-width="1"/><rect x="234.08" y="313.42" width="2.04" height="10.89" fill="#22c55e" opacity="0.9"/><line x1="238.50" y1="305.88" x2="238.50" y2="327.76" stroke="#ef4444" stroke-width="1"/><rect x="237.48" y="313.33" width="2.04" height="14.24" fill="#ef4444" opacity="0.9"/><line x1="241.90" y1="306.45" x2="241.90" y2="344.92" stroke="#22c55e" stroke-width="1"/><rect x="240.88" y="312.14" width="2.04" height="15.43" fill="#22c55e" opacity="0.9"/><line x1="245.30" y1="301.37" x2="245.30" y2="368.47" stroke="#ef4444" stroke-width="1"/><rect x="244.28" y="312.14" width="2.04" height="52.55" fill="#ef4444" opacity="0.9"/><line x1="248.70" y1="351.23" x2="248.70" y2="382.43" stroke="#ef4444" stroke-width="1"/><rect x="247.68" y="364.69" width="2.04" height="5.75" fill="#ef4444" opacity="0.9"/><line x1="252.10" y1="365.13" x2="252.10" y2="384.50" stroke="#ef4444" stroke-width="1"/><rect x="251.08" y="370.43" width="2.04" height="1.00" fill="#ef4444" opacity="0.9"/><line x1="255.50" y1="351.81" x2="255.50" y2="375.65" stroke="#22c55e" stroke-width="1"/><rect x="254.48" y="352.68" width="2.04" height="18.50" fill="#22c55e" opacity="0.9"/><line x1="258.90" y1="351.65" x2="258.90" y2="419.63" stroke="#ef4444" stroke-width="1"/><rect x="257.88" y="352.68" width="2.04" height="65.23" fill="#ef4444" opacity="0.9"/><line x1="262.30" y1="400.21" x2="262.30" y2="456.30" stroke="#22c55e" stroke-width="1"/><rect x="261.28" y="417.16" width="2.04" height="1.00" fill="#22c55e" opacity="0.9"/><line x1="265.70" y1="395.76" x2="265.70" y2="437.98" stroke="#22c55e" stroke-width="1"/><rect x="264.68" y="396.58" width="2.04" height="20.58" fill="#22c55e" opacity="0.9"/><line x1="269.10" y1="382.83" x2="269.10" y2="409.90" stroke="#ef4444" stroke-width="1"/><rect x="268.08" y="396.58" width="2.04" height="6.16" fill="#ef4444" opacity="0.9"/><line x1="272.50" y1="384.51" x2="272.50" y2="404.68" stroke="#ef4444" stroke-width="1"/><rect x="271.48" y="402.64" width="2.04" height="1.00" fill="#ef4444" opacity="0.9"/><line x1="275.90" y1="387.44" x2="275.90" y2="404.81" stroke="#22c55e" stroke-width="1"/><rect x="274.88" y="391.70" width="2.04" height="11.63" fill="#22c55e" opacity="0.9"/><line x1="279.30" y1="383.75" x2="279.30" y2="403.75" stroke="#ef4444" stroke-width="1"/><rect x="278.28" y="391.70" width="2.04" height="6.84" fill="#ef4444" opacity="0.9"/><line x1="282.70" y1="388.97" x2="282.70" y2="399.95" stroke="#22c55e" stroke-width="1"/><rect x="281.68" y="389.23" width="2.04" height="9.31" fill="#22c55e" opacity="0.9"/><line x1="286.10" y1="387.57" x2="286.10" y2="397.95" stroke="#ef4444" stroke-width="1"/><rect x="285.08" y="389.22" width="2.04" height="4.64" fill="#ef4444" opacity="0.9"/><line x1="289.50" y1="391.24" x2="289.50" y2="402.71" stroke="#22c55e" stroke-width="1"/><rect x="288.48" y="391.63" width="2.04" height="2.23" fill="#22c55e" opacity="0.9"/><line x1="292.90" y1="386.88" x2="292.90" y2="395.72" stroke="#22c55e" stroke-width="1"/><rect x="291.88" y="389.58" width="2.04" height="2.05" fill="#22c55e" opacity="0.9"/><line x1="296.30" y1="386.20" x2="296.30" y2="397.82" stroke="#22c55e" stroke-width="1"/><rect x="295.28" y="388.09" width="2.04" height="1.50" fill="#22c55e" opacity="0.9"/><line x1="299.70" y1="387.75" x2="299.70" y2="400.85" stroke="#ef4444" stroke-width="1"/><rect x="298.68" y="388.08" width="2.04" height="8.96" fill="#ef4444" opacity="0.9"/><line x1="303.10" y1="370.16" x2="303.10" y2="408.82" stroke="#22c55e" stroke-width="1"/><rect x="302.08" y="378.52" width="2.04" height="18.52" fill="#22c55e" opacity="0.9"/><line x1="306.50" y1="363.04" x2="306.50" y2="386.10" stroke="#22c55e" stroke-width="1"/><rect x="305.48" y="365.94" width="2.04" height="12.57" fill="#22c55e" opacity="0.9"/><line x1="309.90" y1="348.16" x2="309.90" y2="370.65" stroke="#22c55e" stroke-width="1"/><rect x="308.88" y="358.34" width="2.04" height="7.60" fill="#22c55e" opacity="0.9"/><line x1="313.30" y1="349.79" x2="313.30" y2="366.23" stroke="#ef4444" stroke-width="1"/><rect x="312.28" y="358.34" width="2.04" height="4.68" fill="#ef4444" opacity="0.9"/><line x1="316.70" y1="330.03" x2="316.70" y2="384.63" stroke="#22c55e" stroke-width="1"/><rect x="315.68" y="335.72" width="2.04" height="27.29" fill="#22c55e" opacity="0.9"/><line x1="320.10" y1="311.91" x2="320.10" y2="339.13" stroke="#22c55e" stroke-width="1"/><rect x="319.08" y="315.92" width="2.04" height="19.80" fill="#22c55e" opacity="0.9"/><line x1="323.50" y1="307.12" x2="323.50" y2="326.20" stroke="#ef4444" stroke-width="1"/><rect x="322.48" y="315.92" width="2.04" height="3.18" fill="#ef4444" opacity="0.9"/><line x1="326.90" y1="306.30" x2="326.90" y2="326.75" stroke="#22c55e" stroke-width="1"/><rect x="325.88" y="316.96" width="2.04" height="2.15" fill="#22c55e" opacity="0.9"/><line x1="330.30" y1="314.18" x2="330.30" y2="340.96" stroke="#ef4444" stroke-width="1"/><rect x="329.28" y="316.96" width="2.04" height="6.18" fill="#ef4444" opacity="0.9"/><line x1="333.70" y1="314.53" x2="333.70" y2="330.45" stroke="#ef4444" stroke-width="1"/><rect x="332.68" y="323.32" width="2.04" height="4.84" fill="#ef4444" opacity="0.9"/><line x1="337.10" y1="328.08" x2="337.10" y2="355.11" stroke="#ef4444" stroke-width="1"/><rect x="336.08" y="328.15" width="2.04" height="26.95" fill="#ef4444" opacity="0.9"/><line x1="340.50" y1="355.11" x2="340.50" y2="384.23" stroke="#ef4444" stroke-width="1"/><rect x="339.48" y="355.11" width="2.04" height="18.19" fill="#ef4444" opacity="0.9"/><line x1="343.90" y1="359.71" x2="343.90" y2="383.61" stroke="#22c55e" stroke-width="1"/><rect x="342.88" y="364.05" width="2.04" height="9.25" fill="#22c55e" opacity="0.9"/><line x1="347.30" y1="273.33" x2="347.30" y2="376.28" stroke="#22c55e" stroke-width="1"/><rect x="346.28" y="275.52" width="2.04" height="88.52" fill="#22c55e" opacity="0.9"/><line x1="350.70" y1="264.49" x2="350.70" y2="313.97" stroke="#ef4444" stroke-width="1"/><rect x="349.68" y="275.52" width="2.04" height="29.95" fill="#ef4444" opacity="0.9"/><line x1="354.10" y1="304.98" x2="354.10" y2="373.82" stroke="#ef4444" stroke-width="1"/><rect x="353.08" y="305.44" width="2.04" height="63.69" fill="#ef4444" opacity="0.9"/><line x1="357.50" y1="362.19" x2="357.50" y2="377.71" stroke="#ef4444" stroke-width="1"/><rect x="356.48" y="369.13" width="2.04" height="1.38" fill="#ef4444" opacity="0.9"/><line x1="360.90" y1="362.65" x2="360.90" y2="381.67" stroke="#22c55e" stroke-width="1"/><rect x="359.88" y="368.88" width="2.04" height="1.63" fill="#22c55e" opacity="0.9"/><line x1="364.30" y1="368.04" x2="364.30" y2="396.55" stroke="#ef4444" stroke-width="1"/><rect x="363.28" y="368.87" width="2.04" height="13.84" fill="#ef4444" opacity="0.9"/><line x1="367.70" y1="352.96" x2="367.70" y2="384.63" stroke="#22c55e" stroke-width="1"/><rect x="366.68" y="366.50" width="2.04" height="16.22" fill="#22c55e" opacity="0.9"/><line x1="371.10" y1="359.74" x2="371.10" y2="383.87" stroke="#ef4444" stroke-width="1"/><rect x="370.08" y="366.50" width="2.04" height="10.40" fill="#ef4444" opacity="0.9"/><line x1="374.50" y1="373.13" x2="374.50" y2="397.74" stroke="#ef4444" stroke-width="1"/><rect x="373.48" y="376.89" width="2.04" height="5.14" fill="#ef4444" opacity="0.9"/><line x1="377.90" y1="360.83" x2="377.90" y2="383.50" stroke="#22c55e" stroke-width="1"/><rect x="376.88" y="367.20" width="2.04" height="14.84" fill="#22c55e" opacity="0.9"/><line x1="381.30" y1="332.40" x2="381.30" y2="367.68" stroke="#22c55e" stroke-width="1"/><rect x="380.28" y="351.72" width="2.04" height="15.47" fill="#22c55e" opacity="0.9"/><line x1="384.70" y1="339.92" x2="384.70" y2="354.29" stroke="#22c55e" stroke-width="1"/><rect x="383.68" y="351.24" width="2.04" height="1.00" fill="#22c55e" opacity="0.9"/><line x1="388.10" y1="335.78" x2="388.10" y2="361.76" stroke="#22c55e" stroke-width="1"/><rect x="387.08" y="339.50" width="2.04" height="11.74" fill="#22c55e" opacity="0.9"/><line x1="391.50" y1="314.06" x2="391.50" y2="344.41" stroke="#22c55e" stroke-width="1"/><rect x="390.48" y="334.21" width="2.04" height="5.42" fill="#22c55e" opacity="0.9"/><line x1="394.90" y1="334.03" x2="394.90" y2="349.99" stroke="#ef4444" stroke-width="1"/><rect x="393.88" y="334.21" width="2.04" height="2.42" fill="#ef4444" opacity="0.9"/><line x1="398.30" y1="322.92" x2="398.30" y2="338.06" stroke="#22c55e" stroke-width="1"/><rect x="397.28" y="329.70" width="2.04" height="6.93" fill="#22c55e" opacity="0.9"/><line x1="401.70" y1="309.89" x2="401.70" y2="331.87" stroke="#22c55e" stroke-width="1"/><rect x="400.68" y="318.19" width="2.04" height="11.54" fill="#22c55e" opacity="0.9"/><line x1="405.10" y1="310.24" x2="405.10" y2="326.84" stroke="#ef4444" stroke-width="1"/><rect x="404.08" y="318.19" width="2.04" height="1.00" fill="#ef4444" opacity="0.9"/><line x1="408.50" y1="297.99" x2="408.50" y2="342.49" stroke="#ef4444" stroke-width="1"/><rect x="407.48" y="318.27" width="2.04" height="18.39" fill="#ef4444" opacity="0.9"/><line x1="411.90" y1="320.19" x2="411.90" y2="341.30" stroke="#22c55e" stroke-width="1"/><rect x="410.88" y="326.37" width="2.04" height="10.29" fill="#22c55e" opacity="0.9"/><line x1="415.30" y1="316.76" x2="415.30" y2="329.01" stroke="#22c55e" stroke-width="1"/><rect x="414.28" y="319.13" width="2.04" height="7.23" fill="#22c55e" opacity="0.9"/><line x1="418.70" y1="315.33" x2="418.70" y2="325.73" stroke="#ef4444" stroke-width="1"/><rect x="417.68" y="319.13" width="2.04" height="1.00" fill="#ef4444" opacity="0.9"/><line x1="422.10" y1="304.92" x2="422.10" y2="319.27" stroke="#22c55e" stroke-width="1"/><rect x="421.08" y="310.30" width="2.04" height="8.97" fill="#22c55e" opacity="0.9"/><line x1="425.50" y1="304.17" x2="425.50" y2="312.56" stroke="#22c55e" stroke-width="1"/><rect x="424.48" y="308.96" width="2.04" height="1.33" fill="#22c55e" opacity="0.9"/><line x1="428.90" y1="302.15" x2="428.90" y2="313.82" stroke="#ef4444" stroke-width="1"/><rect x="427.88" y="308.96" width="2.04" height="3.62" fill="#ef4444" opacity="0.9"/><line x1="432.30" y1="306.06" x2="432.30" y2="316.83" stroke="#22c55e" stroke-width="1"/><rect x="431.28" y="308.20" width="2.04" height="4.39" fill="#22c55e" opacity="0.9"/><line x1="435.70" y1="306.95" x2="435.70" y2="313.44" stroke="#22c55e" stroke-width="1"/><rect x="434.68" y="307.94" width="2.04" height="1.00" fill="#22c55e" opacity="0.9"/><line x1="439.10" y1="302.90" x2="439.10" y2="314.80" stroke="#ef4444" stroke-width="1"/><rect x="438.08" y="307.94" width="2.04" height="6.68" fill="#ef4444" opacity="0.9"/><line x1="442.50" y1="306.18" x2="442.50" y2="314.63" stroke="#22c55e" stroke-width="1"/><rect x="441.48" y="306.30" width="2.04" height="8.33" fill="#22c55e" opacity="0.9"/><line x1="445.90" y1="273.95" x2="445.90" y2="306.69" stroke="#22c55e" stroke-width="1"/><rect x="444.88" y="277.69" width="2.04" height="28.57" fill="#22c55e" opacity="0.9"/><line x1="449.30" y1="263.91" x2="449.30" y2="278.02" stroke="#22c55e" stroke-width="1"/><rect x="448.28" y="270.15" width="2.04" height="7.54" fill="#22c55e" opacity="0.9"/><line x1="452.70" y1="268.26" x2="452.70" y2="277.79" stroke="#ef4444" stroke-width="1"/><rect x="451.68" y="270.15" width="2.04" height="1.72" fill="#ef4444" opacity="0.9"/><line x1="456.10" y1="233.71" x2="456.10" y2="284.18" stroke="#22c55e" stroke-width="1"/><rect x="455.08" y="254.54" width="2.04" height="17.32" fill="#22c55e" opacity="0.9"/><line x1="459.50" y1="237.84" x2="459.50" y2="258.03" stroke="#22c55e" stroke-width="1"/><rect x="458.48" y="246.54" width="2.04" height="8.07" fill="#22c55e" opacity="0.9"/><line x1="462.90" y1="220.33" x2="462.90" y2="246.75" stroke="#22c55e" stroke-width="1"/><rect x="461.88" y="235.77" width="2.04" height="10.74" fill="#22c55e" opacity="0.9"/><line x1="466.30" y1="234.78" x2="466.30" y2="249.40" stroke="#ef4444" stroke-width="1"/><rect x="465.28" y="235.77" width="2.04" height="4.20" fill="#ef4444" opacity="0.9"/><line x1="469.70" y1="238.18" x2="469.70" y2="255.96" stroke="#ef4444" stroke-width="1"/><rect x="468.68" y="239.97" width="2.04" height="6.90" fill="#ef4444" opacity="0.9"/><line x1="473.10" y1="231.73" x2="473.10" y2="250.39" stroke="#ef4444" stroke-width="1"/><rect x="472.08" y="246.93" width="2.04" height="1.00" fill="#ef4444" opacity="0.9"/><line x1="476.50" y1="247.21" x2="476.50" y2="267.57" stroke="#ef4444" stroke-width="1"/><rect x="475.48" y="247.21" width="2.04" height="15.34" fill="#ef4444" opacity="0.9"/><line x1="479.90" y1="254.65" x2="479.90" y2="272.51" stroke="#ef4444" stroke-width="1"/><rect x="478.88" y="262.56" width="2.04" height="3.88" fill="#ef4444" opacity="0.9"/><line x1="483.30" y1="257.85" x2="483.30" y2="274.00" stroke="#22c55e" stroke-width="1"/><rect x="482.28" y="261.33" width="2.04" height="5.10" fill="#22c55e" opacity="0.9"/><line x1="486.70" y1="252.16" x2="486.70" y2="262.61" stroke="#22c55e" stroke-width="1"/><rect x="485.68" y="258.32" width="2.04" height="3.01" fill="#22c55e" opacity="0.9"/><line x1="490.10" y1="226.18" x2="490.10" y2="262.17" stroke="#22c55e" stroke-width="1"/><rect x="489.08" y="252.88" width="2.04" height="5.45" fill="#22c55e" opacity="0.9"/><line x1="493.50" y1="235.25" x2="493.50" y2="272.83" stroke="#ef4444" stroke-width="1"/><rect x="492.48" y="252.88" width="2.04" height="17.56" fill="#ef4444" opacity="0.9"/><line x1="496.90" y1="270.13" x2="496.90" y2="297.59" stroke="#ef4444" stroke-width="1"/><rect x="495.88" y="270.62" width="2.04" height="14.38" fill="#ef4444" opacity="0.9"/><line x1="500.30" y1="283.29" x2="500.30" y2="299.68" stroke="#ef4444" stroke-width="1"/><rect x="499.28" y="285.01" width="2.04" height="6.90" fill="#ef4444" opacity="0.9"/><line x1="503.70" y1="271.98" x2="503.70" y2="292.14" stroke="#22c55e" stroke-width="1"/><rect x="502.68" y="272.36" width="2.04" height="19.55" fill="#22c55e" opacity="0.9"/><line x1="507.10" y1="271.16" x2="507.10" y2="287.59" stroke="#ef4444" stroke-width="1"/><rect x="506.08" y="272.36" width="2.04" height="7.85" fill="#ef4444" opacity="0.9"/><line x1="510.50" y1="271.10" x2="510.50" y2="312.16" stroke="#ef4444" stroke-width="1"/><rect x="509.48" y="280.21" width="2.04" height="29.59" fill="#ef4444" opacity="0.9"/><line x1="513.90" y1="300.58" x2="513.90" y2="352.89" stroke="#ef4444" stroke-width="1"/><rect x="512.88" y="309.79" width="2.04" height="15.64" fill="#ef4444" opacity="0.9"/><line x1="517.30" y1="304.61" x2="517.30" y2="342.24" stroke="#ef4444" stroke-width="1"/><rect x="516.28" y="325.43" width="2.04" height="11.56" fill="#ef4444" opacity="0.9"/><line x1="520.70" y1="318.68" x2="520.70" y2="342.49" stroke="#22c55e" stroke-width="1"/><rect x="519.68" y="323.80" width="2.04" height="13.19" fill="#22c55e" opacity="0.9"/><line x1="524.10" y1="307.84" x2="524.10" y2="375.34" stroke="#22c55e" stroke-width="1"/><rect x="523.08" y="312.63" width="2.04" height="11.16" fill="#22c55e" opacity="0.9"/><line x1="527.50" y1="311.27" x2="527.50" y2="343.09" stroke="#ef4444" stroke-width="1"/><rect x="526.48" y="312.63" width="2.04" height="29.96" fill="#ef4444" opacity="0.9"/><line x1="530.90" y1="341.21" x2="530.90" y2="386.60" stroke="#ef4444" stroke-width="1"/><rect x="529.88" y="342.59" width="2.04" height="36.69" fill="#ef4444" opacity="0.9"/><line x1="534.30" y1="369.94" x2="534.30" y2="405.85" stroke="#ef4444" stroke-width="1"/><rect x="533.28" y="379.35" width="2.04" height="21.59" fill="#ef4444" opacity="0.9"/><line x1="537.70" y1="367.88" x2="537.70" y2="405.31" stroke="#22c55e" stroke-width="1"/><rect x="536.68" y="368.51" width="2.04" height="32.62" fill="#22c55e" opacity="0.9"/><line x1="541.10" y1="336.77" x2="541.10" y2="369.08" stroke="#22c55e" stroke-width="1"/><rect x="540.08" y="351.69" width="2.04" height="16.82" fill="#22c55e" opacity="0.9"/><line x1="544.50" y1="333.19" x2="544.50" y2="353.92" stroke="#22c55e" stroke-width="1"/><rect x="543.48" y="347.90" width="2.04" height="3.79" fill="#22c55e" opacity="0.9"/><line x1="547.90" y1="327.74" x2="547.90" y2="352.55" stroke="#22c55e" stroke-width="1"/><rect x="546.88" y="330.01" width="2.04" height="17.88" fill="#22c55e" opacity="0.9"/><line x1="551.30" y1="315.74" x2="551.30" y2="349.36" stroke="#ef4444" stroke-width="1"/><rect x="550.28" y="330.01" width="2.04" height="3.72" fill="#ef4444" opacity="0.9"/><line x1="554.70" y1="331.63" x2="554.70" y2="362.55" stroke="#ef4444" stroke-width="1"/><rect x="553.68" y="333.74" width="2.04" height="6.47" fill="#ef4444" opacity="0.9"/><line x1="558.10" y1="340.21" x2="558.10" y2="349.60" stroke="#ef4444" stroke-width="1"/><rect x="557.08" y="340.21" width="2.04" height="4.19" fill="#ef4444" opacity="0.9"/><line x1="561.50" y1="331.69" x2="561.50" y2="348.33" stroke="#22c55e" stroke-width="1"/><rect x="560.48" y="332.94" width="2.04" height="11.46" fill="#22c55e" opacity="0.9"/><line x1="564.90" y1="327.04" x2="564.90" y2="338.78" stroke="#ef4444" stroke-width="1"/><rect x="563.88" y="332.94" width="2.04" height="3.21" fill="#ef4444" opacity="0.9"/><line x1="568.30" y1="332.45" x2="568.30" y2="340.28" stroke="#22c55e" stroke-width="1"/><rect x="567.28" y="334.78" width="2.04" height="1.37" fill="#22c55e" opacity="0.9"/><line x1="571.70" y1="330.75" x2="571.70" y2="342.61" stroke="#22c55e" stroke-width="1"/><rect x="570.68" y="331.73" width="2.04" height="3.06" fill="#22c55e" opacity="0.9"/><line x1="575.10" y1="327.62" x2="575.10" y2="333.99" stroke="#ef4444" stroke-width="1"/><rect x="574.08" y="331.72" width="2.04" height="1.00" fill="#ef4444" opacity="0.9"/><line x1="578.50" y1="327.86" x2="578.50" y2="340.02" stroke="#ef4444" stroke-width="1"/><rect x="577.48" y="332.04" width="2.04" height="3.72" fill="#ef4444" opacity="0.9"/><line x1="581.90" y1="332.37" x2="581.90" y2="339.53" stroke="#ef4444" stroke-width="1"/><rect x="580.88" y="335.75" width="2.04" height="1.00" fill="#ef4444" opacity="0.9"/><line x1="585.30" y1="318.48" x2="585.30" y2="336.99" stroke="#22c55e" stroke-width="1"/><rect x="584.28" y="320.98" width="2.04" height="15.38" fill="#22c55e" opacity="0.9"/><line x1="588.70" y1="314.60" x2="588.70" y2="330.90" stroke="#22c55e" stroke-width="1"/><rect x="587.68" y="315.40" width="2.04" height="5.58" fill="#22c55e" opacity="0.9"/><line x1="592.10" y1="314.41" x2="592.10" y2="335.58" stroke="#ef4444" stroke-width="1"/><rect x="591.08" y="315.40" width="2.04" height="20.11" fill="#ef4444" opacity="0.9"/><line x1="595.50" y1="331.14" x2="595.50" y2="342.44" stroke="#22c55e" stroke-width="1"/><rect x="594.48" y="334.08" width="2.04" height="1.43" fill="#22c55e" opacity="0.9"/><line x1="598.90" y1="323.64" x2="598.90" y2="347.41" stroke="#22c55e" stroke-width="1"/><rect x="597.88" y="327.41" width="2.04" height="6.67" fill="#22c55e" opacity="0.9"/><line x1="602.30" y1="323.47" x2="602.30" y2="375.66" stroke="#ef4444" stroke-width="1"/><rect x="601.28" y="327.41" width="2.04" height="47.45" fill="#ef4444" opacity="0.9"/><line x1="605.70" y1="372.39" x2="605.70" y2="391.88" stroke="#ef4444" stroke-width="1"/><rect x="604.68" y="374.86" width="2.04" height="8.84" fill="#ef4444" opacity="0.9"/><line x1="609.10" y1="375.10" x2="609.10" y2="397.11" stroke="#22c55e" stroke-width="1"/><rect x="608.08" y="377.62" width="2.04" height="6.08" fill="#22c55e" opacity="0.9"/><line x1="612.50" y1="367.53" x2="612.50" y2="421.83" stroke="#ef4444" stroke-width="1"/><rect x="611.48" y="377.62" width="2.04" height="37.51" fill="#ef4444" opacity="0.9"/><line x1="615.90" y1="378.28" x2="615.90" y2="423.35" stroke="#22c55e" stroke-width="1"/><rect x="614.88" y="391.05" width="2.04" height="24.07" fill="#22c55e" opacity="0.9"/><line x1="619.30" y1="389.44" x2="619.30" y2="414.63" stroke="#ef4444" stroke-width="1"/><rect x="618.28" y="390.96" width="2.04" height="9.27" fill="#ef4444" opacity="0.9"/><line x1="622.70" y1="387.06" x2="622.70" y2="413.51" stroke="#22c55e" stroke-width="1"/><rect x="621.68" y="389.89" width="2.04" height="10.33" fill="#22c55e" opacity="0.9"/><line x1="626.10" y1="387.06" x2="626.10" y2="444.21" stroke="#ef4444" stroke-width="1"/><rect x="625.08" y="389.89" width="2.04" height="48.77" fill="#ef4444" opacity="0.9"/><line x1="629.50" y1="434.54" x2="629.50" y2="455.04" stroke="#22c55e" stroke-width="1"/><rect x="628.48" y="436.81" width="2.04" height="1.85" fill="#22c55e" opacity="0.9"/><line x1="632.90" y1="432.16" x2="632.90" y2="467.31" stroke="#ef4444" stroke-width="1"/><rect x="631.88" y="436.81" width="2.04" height="25.37" fill="#ef4444" opacity="0.9"/><line x1="636.30" y1="456.55" x2="636.30" y2="520.24" stroke="#ef4444" stroke-width="1"/><rect x="635.28" y="462.19" width="2.04" height="48.54" fill="#ef4444" opacity="0.9"/><line x1="639.70" y1="485.56" x2="639.70" y2="540.00" stroke="#22c55e" stroke-width="1"/><rect x="638.68" y="493.35" width="2.04" height="17.37" fill="#22c55e" opacity="0.9"/><line x1="643.10" y1="478.83" x2="643.10" y2="539.21" stroke="#22c55e" stroke-width="1"/><rect x="642.08" y="481.05" width="2.04" height="12.00" fill="#22c55e" opacity="0.9"/><line x1="646.50" y1="476.64" x2="646.50" y2="493.18" stroke="#ef4444" stroke-width="1"/><rect x="645.48" y="481.05" width="2.04" height="3.39" fill="#ef4444" opacity="0.9"/><line x1="649.90" y1="480.29" x2="649.90" y2="499.51" stroke="#22c55e" stroke-width="1"/><rect x="648.88" y="482.93" width="2.04" height="1.51" fill="#22c55e" opacity="0.9"/><line x1="653.30" y1="451.24" x2="653.30" y2="485.70" stroke="#22c55e" stroke-width="1"/><rect x="652.28" y="452.67" width="2.04" height="30.26" fill="#22c55e" opacity="0.9"/><line x1="656.70" y1="438.14" x2="656.70" y2="464.98" stroke="#22c55e" stroke-width="1"/><rect x="655.68" y="447.84" width="2.04" height="4.84" fill="#22c55e" opacity="0.9"/><line x1="660.10" y1="437.93" x2="660.10" y2="460.97" stroke="#ef4444" stroke-width="1"/><rect x="659.08" y="447.84" width="2.04" height="2.34" fill="#ef4444" opacity="0.9"/><line x1="663.50" y1="448.63" x2="663.50" y2="471.27" stroke="#ef4444" stroke-width="1"/><rect x="662.48" y="450.18" width="2.04" height="4.13" fill="#ef4444" opacity="0.9"/><line x1="666.90" y1="443.53" x2="666.90" y2="468.01" stroke="#ef4444" stroke-width="1"/><rect x="665.88" y="454.30" width="2.04" height="8.29" fill="#ef4444" opacity="0.9"/><line x1="670.30" y1="457.76" x2="670.30" y2="472.62" stroke="#22c55e" stroke-width="1"/><rect x="669.28" y="461.78" width="2.04" height="1.00" fill="#22c55e" opacity="0.9"/><line x1="673.70" y1="454.66" x2="673.70" y2="491.15" stroke="#ef4444" stroke-width="1"/><rect x="672.68" y="461.77" width="2.04" height="21.98" fill="#ef4444" opacity="0.9"/><line x1="677.10" y1="476.93" x2="677.10" y2="515.79" stroke="#ef4444" stroke-width="1"/><rect x="676.08" y="483.75" width="2.04" height="11.94" fill="#ef4444" opacity="0.9"/><line x1="680.50" y1="490.92" x2="680.50" y2="512.07" stroke="#ef4444" stroke-width="1"/><rect x="679.48" y="495.70" width="2.04" height="1.00" fill="#ef4444" opacity="0.9"/><line x1="683.90" y1="477.94" x2="683.90" y2="507.60" stroke="#22c55e" stroke-width="1"/><rect x="682.88" y="485.97" width="2.04" height="10.32" fill="#22c55e" opacity="0.9"/><line x1="687.30" y1="474.89" x2="687.30" y2="492.11" stroke="#22c55e" stroke-width="1"/><rect x="686.28" y="484.08" width="2.04" height="1.88" fill="#22c55e" opacity="0.9"/><line x1="690.70" y1="483.52" x2="690.70" y2="524.94" stroke="#ef4444" stroke-width="1"/><rect x="689.68" y="484.08" width="2.04" height="29.49" fill="#ef4444" opacity="0.9"/><line x1="694.10" y1="497.64" x2="694.10" y2="534.19" stroke="#22c55e" stroke-width="1"/><rect x="693.08" y="506.18" width="2.04" height="7.40" fill="#22c55e" opacity="0.9"/><line x1="697.50" y1="458.65" x2="697.50" y2="511.48" stroke="#22c55e" stroke-width="1"/><rect x="696.48" y="458.65" width="2.04" height="47.53" fill="#22c55e" opacity="0.9"/><line x1="700.90" y1="445.94" x2="700.90" y2="467.04" stroke="#ef4444" stroke-width="1"/><rect x="699.88" y="458.72" width="2.04" height="1.07" fill="#ef4444" opacity="0.9"/><line x1="704.30" y1="458.44" x2="704.30" y2="474.57" stroke="#ef4444" stroke-width="1"/><rect x="703.28" y="459.80" width="2.04" height="13.61" fill="#ef4444" opacity="0.9"/><line x1="707.70" y1="469.13" x2="707.70" y2="486.37" stroke="#ef4444" stroke-width="1"/><rect x="706.68" y="473.41" width="2.04" height="4.63" fill="#ef4444" opacity="0.9"/><line x1="711.10" y1="471.60" x2="711.10" y2="489.54" stroke="#ef4444" stroke-width="1"/><rect x="710.08" y="478.04" width="2.04" height="9.21" fill="#ef4444" opacity="0.9"/><line x1="714.50" y1="480.80" x2="714.50" y2="494.03" stroke="#ef4444" stroke-width="1"/><rect x="713.48" y="487.25" width="2.04" height="2.20" fill="#ef4444" opacity="0.9"/><line x1="717.90" y1="480.05" x2="717.90" y2="493.40" stroke="#22c55e" stroke-width="1"/><rect x="716.88" y="484.69" width="2.04" height="4.76" fill="#22c55e" opacity="0.9"/><line x1="721.30" y1="475.05" x2="721.30" y2="485.39" stroke="#22c55e" stroke-width="1"/><rect x="720.28" y="478.77" width="2.04" height="5.92" fill="#22c55e" opacity="0.9"/><line x1="724.70" y1="478.17" x2="724.70" y2="495.42" stroke="#ef4444" stroke-width="1"/><rect x="723.68" y="478.77" width="2.04" height="11.71" fill="#ef4444" opacity="0.9"/><line x1="728.10" y1="481.53" x2="728.10" y2="490.94" stroke="#22c55e" stroke-width="1"/><rect x="727.08" y="485.46" width="2.04" height="5.02" fill="#22c55e" opacity="0.9"/><line x1="731.50" y1="478.33" x2="731.50" y2="493.56" stroke="#22c55e" stroke-width="1"/><rect x="730.48" y="479.74" width="2.04" height="5.71" fill="#22c55e" opacity="0.9"/><line x1="734.90" y1="444.65" x2="734.90" y2="483.82" stroke="#22c55e" stroke-width="1"/><rect x="733.88" y="452.46" width="2.04" height="27.28" fill="#22c55e" opacity="0.9"/><line x1="738.30" y1="448.12" x2="738.30" y2="460.10" stroke="#ef4444" stroke-width="1"/><rect x="737.28" y="452.46" width="2.04" height="4.54" fill="#ef4444" opacity="0.9"/><text x="10" y="20" fill="#9333ea" font-size="12" font-family="monospace">Kijun (26)</text><text x="10" y="35" fill="#06b6d4" font-size="12" font-family="monospace">Tenkan (9)</text><text x="10" y="50" fill="#22c55e" font-size="12" font-family="monospace" opacity="0.5">Cloud</text></svg>